<svg xmlns="http://www.w3.org/2000/svg" width="84" height="97.522" viewBox="0 0 84 96.52">
  <g id="Grupo_6" data-name="Grupo 6" transform="translate(-464 1199.022)">
    <g id="Grupo_5" data-name="Grupo 5">
      <g id="Grupo_4" data-name="Grupo 4">
        <g id="Retângulo_1" data-name="Retângulo 1" transform="translate(464 -1151)" fill="none" stroke="#d29300" stroke-width="2">
          <rect width="84" height="10" rx="4" stroke="none"/>
          <rect x="1" y="1" width="82" height="8" rx="3" fill="none"/>
        </g>
        <g id="Grupo_3" data-name="Grupo 3" transform="translate(472.5 -1199.022)">
          <g id="Interseção_1" data-name="Interseção 1" transform="translate(0 0)" fill="none">
            <path d="M0,49.022H67C65.479,21.544,51.061,0,33.5,0S1.521,21.544,0,49.022Z" stroke="none"/>
            <path d="M 64.85945129394531 47.02188110351562 C 63.87584686279297 34.84840774536133 60.2679328918457 23.6618480682373 54.6104736328125 15.33036041259766 C 51.72521209716797 11.08136081695557 48.4428825378418 7.768050670623779 44.85466384887695 5.482490539550781 C 41.22681427001953 3.171680450439453 37.40655517578125 2.000000476837158 33.50000381469727 2.000000476837158 C 29.59345436096191 2.000000476837158 25.773193359375 3.171680450439453 22.14534378051758 5.482490539550781 C 18.5571231842041 7.768050670623779 15.27480411529541 11.08136081695557 12.38953399658203 15.33036041259766 C 6.732064247131348 23.66185760498047 3.1241614818573 34.84841537475586 2.140563249588013 47.02188110351562 L 64.85945129394531 47.02188110351562 M 67.00001525878906 49.02188110351562 L 3.814697265625e-06 49.02188110351562 C 1.521123766899109 21.54423141479492 15.93872356414795 5.517578074432095e-07 33.50000381469727 5.517578074432095e-07 C 51.06129455566406 5.517578074432095e-07 65.47887420654297 21.54423141479492 67.00001525878906 49.02188110351562 Z" stroke="none" fill="#d29300"/>
          </g>
          <g id="Interseção_2" data-name="Interseção 2" transform="translate(5.908 8.754)" fill="none">
            <path d="M0,40.268H55.183C53.93,17.7,42.056,0,27.592,0S1.253,17.7,0,40.268Z" stroke="none"/>
            <path d="M 53.03608703613281 38.26794052124023 C 52.18659591674805 28.48003005981445 49.25336074829102 19.50028228759766 44.68830108642578 12.79548072814941 C 42.33932113647461 9.345479965209961 39.67053985595703 6.657430171966553 36.75609970092773 4.806000232696533 C 33.82514953613281 2.944070339202881 30.74175071716309 2.000000238418579 27.59155082702637 2.000000238418579 C 24.44134140014648 2.000000238418579 21.35794067382812 2.944070339202881 18.4269905090332 4.806000232696533 C 15.51254081726074 6.657430171966553 12.84377098083496 9.345479965209961 10.49479103088379 12.79548072814941 C 5.929722309112549 19.50028228759766 2.99648642539978 28.48003005981445 2.146997213363647 38.26794052124023 L 53.03608703613281 38.26794052124023 M 55.18308258056641 40.26794052124023 L 1.290283194066433e-06 40.26794052124023 C 1.252841234207153 17.69703102111816 13.12758159637451 2.606201121579943e-07 27.59155082702637 2.606201121579943e-07 C 42.05551147460938 2.606201121579943e-07 53.93024063110352 17.69703102111816 55.18308258056641 40.26794052124023 Z" stroke="none" fill="#d29300"/>
          </g>
        </g>
        <path id="Caminho_1" data-name="Caminho 1" d="M0,0S-1.5,11.449,0,21.2A59.451,59.451,0,0,0,6,39" transform="translate(469.813 -1141.5)" fill="none" stroke="#d29300" stroke-width="2"/>
        <path id="Caminho_2" data-name="Caminho 2" d="M5.333,0s1.5,11.449,0,21.2a59.451,59.451,0,0,1-6,17.8" transform="translate(536.854 -1141.5)" fill="none" stroke="#d29300" stroke-width="2"/>
        <line id="Linha_1" data-name="Linha 1" x2="67" transform="translate(472.5 -1102.5)" fill="none" stroke="#d29300" stroke-width="2"/>
        <path id="Caminho_3" data-name="Caminho 3" d="M0,0S-1.5,11.449,0,21.2A59.451,59.451,0,0,0,6,39" transform="translate(469.813 -1141.5)" fill="none" stroke="#d29300" stroke-width="2"/>
        <path id="Caminho_4" data-name="Caminho 4" d="M0,0S-1.5,11.449,0,21.2A59.451,59.451,0,0,0,6,39" transform="translate(481.813 -1141.5)" fill="none" stroke="#d29300" stroke-width="2"/>
        <path id="Caminho_5" data-name="Caminho 5" d="M2.824.418S-1.5,11.449,0,21.2A59.451,59.451,0,0,0,6,39" transform="translate(494.813 -1141.5)" fill="none" stroke="#d29300" stroke-width="2"/>
        <path id="Caminho_6" data-name="Caminho 6" d="M5.333,0s1.5,11.449,0,21.2a59.451,59.451,0,0,1-6,17.8" transform="translate(526.813 -1141.5)" fill="none" stroke="#d29300" stroke-width="2"/>
        <path id="Caminho_7" data-name="Caminho 7" d="M3.252.531S6.833,11.449,5.333,21.2a59.451,59.451,0,0,1-6,17.8" transform="translate(513.813 -1141.5)" fill="none" stroke="#d29300" stroke-width="2"/>
        <path id="Caminho_8" data-name="Caminho 8" d="M0,0A280.7,280.7,0,0,0,37.106,2.908,251.619,251.619,0,0,0,73,0" transform="translate(469.5 -1133.5)" fill="none" stroke="#d29300" stroke-width="2"/>
        <path id="Caminho_9" data-name="Caminho 9" d="M0,0A280.7,280.7,0,0,0,37.106,2.908,251.619,251.619,0,0,0,73,0" transform="translate(469.5 -1124.908)" fill="none" stroke="#d29300" stroke-width="2"/>
        <path id="Caminho_10" data-name="Caminho 10" d="M0,0A264.928,264.928,0,0,0,36.035,2.908,237.5,237.5,0,0,0,70.894,0" transform="translate(470.5 -1114.5)" fill="none" stroke="#d29300" stroke-width="2"/>
      </g>
    </g>
  </g>
</svg>
