<svg xmlns="http://www.w3.org/2000/svg" width="298.391" height="200" viewBox="0 0 298.391 200">
  <g id="Grupo_17602" data-name="Grupo 17602" transform="translate(-57 -136)">
    <g id="undraw_personal_information_re_vw8a" transform="translate(57 136)">
      <path id="Caminho_2" data-name="Caminho 2" d="M654.629,235.819c0,40.428-25.886,74.875-62.143,87.982a94.317,94.317,0,0,1-17.005,4.418,96.157,96.157,0,0,1-47.506-4.271c-36.487-13-62.562-47.562-62.545-88.149,0-51.7,42.355-93.623,94.6-93.623a94.845,94.845,0,0,1,55.043,17.48A93.226,93.226,0,0,1,654.629,235.819Z" transform="translate(-356.238 -129.461)" fill="#e5e5e5"/>
      <path id="Caminho_3" data-name="Caminho 3" d="M748.122,736.359a93.555,93.555,0,0,1-17.005,4.463,95.238,95.238,0,0,1-47.506-4.314l4.369-17.53.264-1.052,8.915.034,44.789.16.573,1.694Z" transform="translate(-511.125 -542.078)" fill="#2f2e41"/>
      <rect id="Rectangle_25" data-name="Rectangle 25" width="82.173" height="92.981" fill="#e6e6e6"/>
      <rect id="Rectangle_25-2" data-name="Rectangle 25-2" width="79.099" height="89.047" transform="translate(1.465 1.967)" fill="#fff"/>
      <circle id="Ellipse_116" data-name="Ellipse 116" cx="4.434" cy="4.434" r="4.434" transform="translate(36.653 78.198)" fill="#e6e6e6"/>
      <rect id="Rectangle_31" data-name="Rectangle 31" width="25.466" height="2.605" transform="translate(14.871 33.488)" fill="#e6e6e6"/>
      <rect id="Rectangle_32" data-name="Rectangle 32" width="38.436" height="2.605" transform="translate(14.871 40.898)" fill="#e68011"/>
      <rect id="Rectangle_38" data-name="Rectangle 38" width="34.663" height="2.605" transform="translate(14.871 48.679)" fill="#e6e6e6"/>
      <rect id="Rectangle_39" data-name="Rectangle 39" width="53.527" height="2.605" transform="translate(14.871 56.253)" fill="#e68011"/>
      <rect id="Rectangle_40" data-name="Rectangle 40" width="43.623" height="2.605" transform="translate(15.427 63.467)" fill="#e6e6e6"/>
      <g id="Group_52" data-name="Group 52" transform="translate(99.431 30.986)">
        <path id="Path_846" data-name="Path 846" d="M445.941,604.431a8.532,8.532,0,0,1,.857,1.032l40.164-.983,4.686-8.562,13.846,5.383-6.823,15.964a6.481,6.481,0,0,1-6.737,3.888l-45.379-5.482a8.5,8.5,0,1,1-.616-11.241Z" transform="translate(-431.379 -486.031)" fill="#feb8b8"/>
        <path id="Path_852" data-name="Path 852" d="M670.758,420.9l18.8-6.16,5.521-7.571,26.865,1.59,3.944,8.835,14.325,6.769-2.2,40.885-3.766,38.263c-19.367-10.028-55.51-2.383-55.826-2.258Z" transform="translate(-602.136 -351.387)" fill="#e68011"/>
        <path id="Path_853" data-name="Path 853" d="M637.2,510.806l-19.119-7.649.081-.34c.082-.344,8.219-34.347,9.3-39.812,1.125-5.693,5.238-7.267,5.412-7.331l.128-.047,7.566,2.3,3.323,26.11Z" transform="translate(-564.56 -385.957)" fill="#e68011"/>
        <path id="Path_855" data-name="Path 855" d="M808.262,623.42a8.5,8.5,0,0,1,1.341.074l26.587-30.121-3.093-9.255,13.361-6.494,7.068,15.856a6.481,6.481,0,0,1-1.73,7.583l-34.873,29.547a8.5,8.5,0,1,1-8.661-7.192Z" transform="translate(-694.341 -472.982)" fill="#feb8b8"/>
        <path id="Path_856" data-name="Path 856" d="M891.2,517.464l-11.091-26.088,4.326-18.172,4.661-5.888a2.685,2.685,0,0,1,2.157.02c1.72.692,3.182,2.812,4.351,6.3L906,503.244Z" transform="translate(-751.476 -394.14)" fill="#e68011"/>
        <path id="Path_857" data-name="Path 857" d="M718.072,258.7V239.032a26.355,26.355,0,0,1,52.711-.175q0,.087,0,.175V258.7a3.544,3.544,0,0,1-3.54,3.54h-45.63A3.544,3.544,0,0,1,718.072,258.7Z" transform="translate(-635.887 -212.589)" fill="#2f2e41"/>
        <circle id="Ellipse_148" data-name="Ellipse 148" cx="19.323" cy="19.323" r="19.323" transform="translate(83.802 10.548)" fill="#feb8b8"/>
        <path id="Path_858" data-name="Path 858" d="M696.322,258.442a20.872,20.872,0,0,1,20.848-20.848H721.1a20.872,20.872,0,0,1,20.848,20.848v.393h-8.313l-2.835-7.941-.567,7.941h-4.3l-1.43-4.006-.287,4.006h-27.9Z" transform="translate(-620.372 -230.426)" fill="#2f2e41"/>
        <path id="Path_859" data-name="Path 859" d="M782.787,304.011a3.488,3.488,0,0,1-.277-3.7c4.168-7.929,10-22.579,2.258-31.614l-.555-.648H806.7v33.766l-20.431,3.6a3.614,3.614,0,0,1-.626.055,3.526,3.526,0,0,1-2.857-1.46Z" transform="translate(-681.564 -252.148)" fill="#2f2e41"/>
      </g>
      <g id="Group_51" data-name="Group 51" transform="translate(31.586 7.242)">
        <path id="Path_341" data-name="Path 341" d="M194.182,123.086a9.429,9.429,0,1,0,9.428,9.429h0a9.429,9.429,0,0,0-9.429-9.429Zm0,2.828a2.828,2.828,0,1,1-2.828,2.828h0a2.828,2.828,0,0,1,2.828-2.828Zm0,13.617a6.869,6.869,0,0,1-5.657-3.019c.045-1.886,3.771-2.924,5.657-2.924s5.612,1.038,5.657,2.924a6.88,6.88,0,0,1-5.657,3.019Z" transform="translate(-184.753 -123.085)" fill="#e68011"/>
      </g>
      <path id="Path_842" data-name="Path 842" d="M214.043,367.8c3.884-7.118,13.189-11.626,20.8-7.563a13.769,13.769,0,0,1,7.014,8.887c1,4.441-1.111,8.676-3.293,12.407-1.184,2.025-2.482,4.009-3.463,6.145-1.015,2.212-1.741,4.769-.976,7.176a9.339,9.339,0,0,0,4.3,4.9,32.057,32.057,0,0,0,6.611,2.953,38.916,38.916,0,0,0,14.759,1.909,40.366,40.366,0,0,0,7.356-1.189c2.564-.654,5.079-1.482,7.647-2.121,4.287-1.065,9.176-1.594,13.241.545,3.95,2.079,5.717,6.427,6.264,10.657a25.885,25.885,0,0,1-7.679,21.385,21.531,21.531,0,0,1-9.735,5.679c-3.208.774-7.327.724-9.88-1.674-2.849-2.677-2.179-6.969.084-9.792,2.888-3.6,7.781-4.469,12.147-4.556,4.967-.1,9.929.64,14.893.18a22.873,22.873,0,0,0,7.043-1.7,17.847,17.847,0,0,0,5.308-3.592,23.317,23.317,0,0,0,6.159-11.068,35.231,35.231,0,0,0,.007-15.153,68.33,68.33,0,0,0-1.975-7.6c-.332-1.052-1.993-.6-1.659.457,2.958,9.381,4.608,20.228-1.108,28.938a17.231,17.231,0,0,1-10.3,7.417c-4.947,1.229-10.138.622-15.167.439-4.782-.174-10.033.014-14.133,2.8-3.363,2.284-5.715,6.63-4.7,10.732.98,3.956,4.782,5.963,8.584,6.272a18.667,18.667,0,0,0,11.266-3.108,27.847,27.847,0,0,0,12.574-20.136,22.62,22.62,0,0,0-1.928-12.63,12.365,12.365,0,0,0-4.543-5.063,14.942,14.942,0,0,0-6.472-1.994c-5.145-.474-10.088,1.293-14.969,2.644a41.5,41.5,0,0,1-7.633,1.457,38.118,38.118,0,0,1-7.531-.123,37.083,37.083,0,0,1-7.3-1.62,29.211,29.211,0,0,1-6.624-2.995c-1.83-1.17-3.413-2.847-3.5-5.131-.1-2.477,1.151-4.794,2.339-6.883,2.347-4.125,5.246-8.16,5.858-12.99a14,14,0,0,0-4.1-11.4,15.414,15.414,0,0,0-11.391-4.726A18.471,18.471,0,0,0,216.51,361.9a19.309,19.309,0,0,0-3.956,5.025c-.531.972.954,1.841,1.485.868Z" transform="translate(-172.918 -283.895)" fill="#3f3d56"/>
    </g>
  </g>
</svg>
