<svg xmlns="http://www.w3.org/2000/svg" xmlns:xlink="http://www.w3.org/1999/xlink" width="312" height="78" viewBox="0 0 312 78">
  <defs>
    <radialGradient id="radial-gradient" cx="0.5" cy="0.5" r="0.514" gradientTransform="translate(0.015 0.015) scale(0.973)" gradientUnits="objectBoundingBox">
      <stop offset="0.782" stop-color="#fce8a1"/>
      <stop offset="1" stop-color="#ffd303"/>
    </radialGradient>
    <radialGradient id="radial-gradient-2" cx="0.5" cy="0.5" r="0.514" gradientTransform="translate(0.015 0.027) scale(0.973 0.95)" gradientUnits="objectBoundingBox">
      <stop offset="0.796" stop-color="#ffe66f"/>
      <stop offset="0.966" stop-color="#fff000"/>
    </radialGradient>
    <radialGradient id="radial-gradient-3" cx="0.5" cy="0.5" r="0.514" gradientTransform="translate(0.016 0.016) scale(0.973)" gradientUnits="objectBoundingBox">
      <stop offset="0.209" stop-color="#faf28e"/>
      <stop offset="0.785" stop-color="#fff000"/>
      <stop offset="0.992" stop-color="#ffd303"/>
    </radialGradient>
  </defs>
  <g id="Grupo_17511" data-name="Grupo 17511" transform="translate(-842 -498)">
    <g id="Grupo_17508" data-name="Grupo 17508" transform="translate(898.837 504.836)">
      <g id="Grupo_17507" data-name="Grupo 17507" transform="translate(0 0)">
        <ellipse id="Elipse_1" data-name="Elipse 1" cx="28.09" cy="27.325" rx="28.09" ry="27.325" transform="translate(0.328 0.33)" fill="url(#radial-gradient)"/>
        <path id="Elipse_1_-_Contorno" data-name="Elipse 1 - Contorno" d="M20.918-7.5A28.075,28.075,0,0,1,49.337,20.154,28.075,28.075,0,0,1,20.918,47.808,28.075,28.075,0,0,1-7.5,20.154,28.075,28.075,0,0,1,20.918-7.5Zm0,54.651a27.419,27.419,0,0,0,27.763-27,27.419,27.419,0,0,0-27.763-27,27.419,27.419,0,0,0-27.763,27,27.419,27.419,0,0,0,27.763,27Z" transform="translate(7.5 7.501)" fill="#fff"/>
        <ellipse id="Elipse_2" data-name="Elipse 2" cx="21.377" cy="20.796" rx="21.377" ry="20.796" transform="translate(7.041 6.685)" fill="url(#radial-gradient-2)"/>
        <path id="Elipse_2_-_Contorno" data-name="Elipse 2 - Contorno" d="M14.205-7.5A21.443,21.443,0,0,1,35.91,13.625,21.443,21.443,0,0,1,14.205,34.748,21.443,21.443,0,0,1-7.5,13.622,21.443,21.443,0,0,1,14.205-7.5Zm0,41.589A20.789,20.789,0,0,0,35.254,13.622,20.789,20.789,0,0,0,14.205-6.843,20.789,20.789,0,0,0-6.844,13.622,20.789,20.789,0,0,0,14.205,34.09Z" transform="translate(14.213 13.856)" fill="#fff"/>
        <ellipse id="Elipse_3" data-name="Elipse 3" cx="13.881" cy="13.505" rx="13.881" ry="13.505" transform="translate(14.535 14.284)" fill="url(#radial-gradient-3)"/>
        <path id="Elipse_3_-_Contorno" data-name="Elipse 3 - Contorno" d="M-2.854-17.5A14.478,14.478,0,0,1,11.793-3.231,14.478,14.478,0,0,1-2.854,11.037,14.478,14.478,0,0,1-17.5-3.231,14.478,14.478,0,0,1-2.854-17.5Zm0,27.008A12.948,12.948,0,0,0,10.263-3.231,12.948,12.948,0,0,0-2.854-15.971,12.948,12.948,0,0,0-15.97-3.231,12.948,12.948,0,0,0-2.854,9.509Z" transform="translate(31.272 31.018)" fill="#fff"/>
        <g id="Grupo_1" data-name="Grupo 1" transform="translate(8.589 8.43)">
          <path id="Caminho_1" data-name="Caminho 1" d="M551.6,558.045a3.741,3.741,0,0,1-.917-.114,3.53,3.53,0,0,1-.874-.345,3.44,3.44,0,0,1-.765-.588,3.649,3.649,0,0,1-.61-.837,3.467,3.467,0,0,0-3.076-1.812,3.518,3.518,0,0,0-1.2.219,3.476,3.476,0,0,0-1.093.643h0a3.7,3.7,0,0,1-1.148.684,3.5,3.5,0,0,1-1.216.219,3.653,3.653,0,0,1-.831-.1,3.771,3.771,0,0,1-1.48-.713,3.622,3.622,0,0,1-.581-.579,3.418,3.418,0,0,1-.389-.61,3.309,3.309,0,0,1-.251-.693,3.428,3.428,0,0,1,0-1.567h0a3.278,3.278,0,0,0-.643-2.787,3.469,3.469,0,0,0-2.73-1.312h-.229a3.757,3.757,0,0,1-1.2-.19,3.457,3.457,0,0,1-.986-.52,3.5,3.5,0,0,1-.745-.772,3.575,3.575,0,0,1-.477-.942,3.532,3.532,0,0,1-.179-1.008,3.352,3.352,0,0,1,.129-1.025,3.311,3.311,0,0,1,.464-.97,3.661,3.661,0,0,1,.815-.837h0a3.308,3.308,0,0,0,.037-5.308,3.651,3.651,0,0,1-.8-.846,3.3,3.3,0,0,1-.45-.968,3.346,3.346,0,0,1-.118-1.021,3.489,3.489,0,0,1,.186-1,3.591,3.591,0,0,1,.481-.936,3.521,3.521,0,0,1,.745-.763,3.458,3.458,0,0,1,.982-.516,3.736,3.736,0,0,1,1.185-.188h.332a3.471,3.471,0,0,0,2.715-1.285,3.377,3.377,0,0,0,.389-.6,3.245,3.245,0,0,0,.352-1.4,3.315,3.315,0,0,0-.072-.761,3.43,3.43,0,0,1,.018-1.563,3.29,3.29,0,0,1,.256-.684,3.442,3.442,0,0,1,.392-.6,3.631,3.631,0,0,1,.581-.571,3.781,3.781,0,0,1,1.471-.7,3.669,3.669,0,0,1,.824-.094,3.494,3.494,0,0,1,1.237.219,3.689,3.689,0,0,1,1.161.708,3.515,3.515,0,0,0,5.38-.874h0a3.667,3.667,0,0,1,.612-.817,3.453,3.453,0,0,1,.761-.575A3.537,3.537,0,0,1,550.9,520a3.742,3.742,0,0,1,.905-.112,3.82,3.82,0,0,1,1.226.2,3.644,3.644,0,0,1,1.093.588,3.355,3.355,0,0,1,.831.955,3.5,3.5,0,0,1,.437,1.3h0a3.438,3.438,0,0,0,3.428,2.923,3.541,3.541,0,0,0,1.281-.24,3.751,3.751,0,0,1,1.36-.26,3.518,3.518,0,0,1,.988.142,3.584,3.584,0,0,1,.874.4,3.674,3.674,0,0,1,1.29,1.368,3.474,3.474,0,0,1,.315.809,3.262,3.262,0,0,1-.055,1.777,3.622,3.622,0,0,1-.437.894,3.266,3.266,0,0,0-.354,2.9,3.388,3.388,0,0,0,2.186,2.1,3.743,3.743,0,0,1,1.093.548,3.373,3.373,0,0,1,1.233,1.749,3.541,3.541,0,0,1-.013,2.074,3.381,3.381,0,0,1-1.257,1.749,3.741,3.741,0,0,1-1.093.533,3.393,3.393,0,0,0-2.216,2.072,3.263,3.263,0,0,0,.313,2.9v.015a3.633,3.633,0,0,1,.4.875,3.266,3.266,0,0,1,.035,1.766,3.474,3.474,0,0,1-.319.8,3.674,3.674,0,0,1-1.292,1.355,3.586,3.586,0,0,1-.874.391,3.52,3.52,0,0,1-.981.14h0a3.742,3.742,0,0,1-1.4-.28,3.526,3.526,0,0,0-3.561.54,3.354,3.354,0,0,0-.776.91,3.292,3.292,0,0,0-.411,1.174v.057h0a3.5,3.5,0,0,1-.437,1.222,3.352,3.352,0,0,1-.831.94,3.63,3.63,0,0,1-1.093.579,3.823,3.823,0,0,1-1.183.186Zm-6.234-3.826a3.7,3.7,0,0,1,1.83.483,3.514,3.514,0,0,1,1.36,1.4,3.51,3.51,0,0,0,.588.807,3.3,3.3,0,0,0,.737.564,3.5,3.5,0,0,0,1.718.437,3.623,3.623,0,0,0,2.219-.748,3.259,3.259,0,0,0,1.229-2.134v-.057h0a3.424,3.424,0,0,1,.418-1.163,3.476,3.476,0,0,1,.806-.945,3.657,3.657,0,0,1,3.692-.56,3.612,3.612,0,0,0,1.355.271h0a3.42,3.42,0,0,0,1.792-.512,3.533,3.533,0,0,0,1.246-1.312,3.335,3.335,0,0,0,.306-.772,3.134,3.134,0,0,0-.035-1.7,3.5,3.5,0,0,0-.4-.861v-.015a3.5,3.5,0,0,1-.348-.724,3.38,3.38,0,0,1-.153-1.53,3.475,3.475,0,0,1,.538-1.443,3.51,3.51,0,0,1,1.163-1.106,3.653,3.653,0,0,1,.785-.345,3.412,3.412,0,0,0,1.808-1.27,3.277,3.277,0,0,0,.455-.916,3.411,3.411,0,0,0,.013-2,3.267,3.267,0,0,0-.437-.922,3.4,3.4,0,0,0-1.788-1.294,3.685,3.685,0,0,1-.781-.354A3.5,3.5,0,0,1,564,533.678a3.433,3.433,0,0,1-.172-.743A3.377,3.377,0,0,1,564,531.4a3.5,3.5,0,0,1,.367-.736,3.478,3.478,0,0,0,.413-.864,3.149,3.149,0,0,0,.144-.874,3.247,3.247,0,0,0-.4-1.618A3.532,3.532,0,0,0,563.283,526a3.415,3.415,0,0,0-1.8-.516,3.62,3.62,0,0,0-1.312.251,3.659,3.659,0,0,1-3.666-.594,3.478,3.478,0,0,1-.807-.962,3.428,3.428,0,0,1-.416-1.235h0a3.252,3.252,0,0,0-1.218-2.16,3.62,3.62,0,0,0-2.236-.763,3.5,3.5,0,0,0-1.7.437,3.291,3.291,0,0,0-.732.553,3.526,3.526,0,0,0-.586.78h0a3.509,3.509,0,0,1-1.357,1.368,3.693,3.693,0,0,1-1.808.47,3.649,3.649,0,0,1-1.27-.219,3.6,3.6,0,0,1-1.15-.693,3.429,3.429,0,0,0-2.311-.9,3.6,3.6,0,0,0-2.776,1.312,3.211,3.211,0,0,0-.638,2.741,3.44,3.44,0,0,1,.077.789,3.348,3.348,0,0,1-.1.756,3.424,3.424,0,0,1-.262.7,3.542,3.542,0,0,1-.4.625,3.6,3.6,0,0,1-1.983,1.239,3.694,3.694,0,0,1-.835.094h-.332a3.442,3.442,0,0,0-2.088.678,3.379,3.379,0,0,0-.717.734,3.475,3.475,0,0,0-.463.9,3.388,3.388,0,0,0-.179.962,3.206,3.206,0,0,0,.114.979,3.17,3.17,0,0,0,.437.931,3.515,3.515,0,0,0,.776.815,3.568,3.568,0,0,1,.6.586,3.425,3.425,0,0,1-.031,4.355,3.584,3.584,0,0,1-.605.573h0a3.531,3.531,0,0,0-.791.811,3.164,3.164,0,0,0-.437.931,3.212,3.212,0,0,0-.125.986,3.387,3.387,0,0,0,.172.971,3.461,3.461,0,0,0,.459.909,3.373,3.373,0,0,0,.717.741,3.448,3.448,0,0,0,2.1.684h.229a3.7,3.7,0,0,1,.842.1,3.593,3.593,0,0,1,1.991,1.257,3.525,3.525,0,0,1,.4.632,3.382,3.382,0,0,1,.267,2.258h0a3.207,3.207,0,0,0,.614,2.768,3.6,3.6,0,0,0,2.789,1.338,3.439,3.439,0,0,0,2.276-.875h0a3.608,3.608,0,0,1,1.137-.669,3.647,3.647,0,0,1,1.219-.2Z" transform="translate(-528.941 -519.606)" fill="#fff"/>
          <path id="Caminho_2" data-name="Caminho 2" d="M522.908,513.853a3.707,3.707,0,0,1,.874.1,3.534,3.534,0,0,1,.839.324,3.442,3.442,0,0,1,.75.551,3.659,3.659,0,0,1,.614.787,3.386,3.386,0,0,0,1.311,1.266,3.561,3.561,0,0,0,1.707.437,3.48,3.48,0,0,0,2.378-.944,3.669,3.669,0,0,1,1.18-.748,3.5,3.5,0,0,1,1.27-.236h0a3.668,3.668,0,0,1,.811.092,3.786,3.786,0,0,1,1.456.682,3.613,3.613,0,0,1,.581.558,3.4,3.4,0,0,1,.393.588,3.271,3.271,0,0,1,.262.671,3.427,3.427,0,0,1,.05,1.53h0a3.306,3.306,0,0,0-.055.75,3.213,3.213,0,0,0,.372,1.368,3.4,3.4,0,0,0,.391.588,3.47,3.47,0,0,0,2.682,1.253h.5a3.682,3.682,0,0,1,1.168.186,3.456,3.456,0,0,1,.97.505,3.519,3.519,0,0,1,.743.752,3.593,3.593,0,0,1,.485.922,3.506,3.506,0,0,1,.194.986,3.327,3.327,0,0,1-.1,1.01,3.274,3.274,0,0,1-.437.966,3.64,3.64,0,0,1-.778.852h0a3.3,3.3,0,0,0,.166,5.281h0a3.662,3.662,0,0,1,.846.831,3.286,3.286,0,0,1,.483.968,3.348,3.348,0,0,1,.146,1.032,3.519,3.519,0,0,1-.166,1.017,3.58,3.58,0,0,1-.47.953,3.5,3.5,0,0,1-.745.78,3.45,3.45,0,0,1-.992.527,3.77,3.77,0,0,1-1.211.195h-.055a3.458,3.458,0,0,0-2.752,1.331,3.279,3.279,0,0,0-.6,2.813v.013a3.416,3.416,0,0,1,.035,1.591,3.271,3.271,0,0,1-.242.7,3.421,3.421,0,0,1-.385.621,3.622,3.622,0,0,1-.582.59,3.76,3.76,0,0,1-1.488.73,3.638,3.638,0,0,1-.84.1,3.569,3.569,0,0,1-2.3-.846,3.5,3.5,0,0,0-5.334,1.069h0a3.645,3.645,0,0,1-.605.875,3.419,3.419,0,0,1-.772.608,3.638,3.638,0,0,1-1.817.477,3.749,3.749,0,0,1-2.26-.75,3.355,3.355,0,0,1-.828-.911,3.494,3.494,0,0,1-.466-1.246,3.275,3.275,0,0,0-.437-1.146,3.354,3.354,0,0,0-.776-.874,3.519,3.519,0,0,0-3.6-.483,3.716,3.716,0,0,1-1.473.31,3.507,3.507,0,0,1-.968-.135,3.609,3.609,0,0,1-.875-.38,3.666,3.666,0,0,1-1.292-1.329,3.445,3.445,0,0,1-.324-.787,3.257,3.257,0,0,1,0-1.749,3.6,3.6,0,0,1,.389-.89,3.257,3.257,0,0,0,.245-2.9,3.39,3.39,0,0,0-2.26-2.02,3.751,3.751,0,0,1-1.093-.509,3.38,3.38,0,0,1-1.3-1.71,3.539,3.539,0,0,1-.061-2.07,3.355,3.355,0,0,1,1.189-1.775,3.727,3.727,0,0,1,1.067-.571,3.375,3.375,0,0,0,2.132-2.142,3.262,3.262,0,0,0-.422-2.888,3.606,3.606,0,0,1-.452-.894,3.256,3.256,0,0,1-.085-1.792,3.457,3.457,0,0,1,.308-.82,3.637,3.637,0,0,1,.549-.776,3.69,3.69,0,0,1,.737-.612,3.566,3.566,0,0,1,.888-.4,3.5,3.5,0,0,1,1-.144,3.767,3.767,0,0,1,1.285.232h.015a3.53,3.53,0,0,0,1.191.208,3.412,3.412,0,0,0,3.43-3,3.485,3.485,0,0,1,.415-1.311,3.355,3.355,0,0,1,.829-.979,3.64,3.64,0,0,1,1.093-.608,3.846,3.846,0,0,1,1.244-.218Zm6.095,3.6a3.687,3.687,0,0,1-1.769-.45,3.513,3.513,0,0,1-1.351-1.312,3.523,3.523,0,0,0-.592-.759,3.316,3.316,0,0,0-.722-.531,3.5,3.5,0,0,0-1.659-.413,3.4,3.4,0,0,0-3.461,3,3.41,3.41,0,0,1-.393,1.259,3.483,3.483,0,0,1-.8.986,3.629,3.629,0,0,1-.518.367,3.7,3.7,0,0,1-.575.273,3.649,3.649,0,0,1-2.523,0h-.017a3.641,3.641,0,0,0-1.224-.219,3.4,3.4,0,0,0-1.814.527,3.516,3.516,0,0,0-1.239,1.338,3.24,3.24,0,0,0-.376,1.637,3.139,3.139,0,0,0,.162.874,3.5,3.5,0,0,0,.437.861,3.465,3.465,0,0,1,.385.726,3.371,3.371,0,0,1,.219,1.53,3.454,3.454,0,0,1-.483,1.458,3.5,3.5,0,0,1-1.117,1.143,3.656,3.656,0,0,1-.769.371,3.4,3.4,0,0,0-1.749,1.329,3.258,3.258,0,0,0-.42.927,3.407,3.407,0,0,0,.059,1.994,3.283,3.283,0,0,0,.477.905A3.409,3.409,0,0,0,509,536.5a3.683,3.683,0,0,1,.791.326,3.562,3.562,0,0,1,1.548,1.771,3.452,3.452,0,0,1,.2.734,3.367,3.367,0,0,1-.116,1.53,3.487,3.487,0,0,1-.339.748,3.185,3.185,0,0,0-.068,3.279,3.54,3.54,0,0,0,1.246,1.281,3.429,3.429,0,0,0,1.773.5,3.585,3.585,0,0,0,1.421-.3,3.721,3.721,0,0,1,.721-.218,3.651,3.651,0,0,1,3.008.726,3.485,3.485,0,0,1,.807.918,3.415,3.415,0,0,1,.437,1.189,3.263,3.263,0,0,0,1.244,2.077,3.614,3.614,0,0,0,2.186.721,3.38,3.38,0,0,0,3.074-1.871h0a3.5,3.5,0,0,1,1.36-1.447,3.635,3.635,0,0,1,.9-.376,3.716,3.716,0,0,1,.964-.127,3.606,3.606,0,0,1,2.315.831,3.443,3.443,0,0,0,2.214.815,3.492,3.492,0,0,0,.809-.1,3.63,3.63,0,0,0,.758-.273,3.561,3.561,0,0,0,1.237-1,3.193,3.193,0,0,0,.575-2.789v-.013a3.419,3.419,0,0,1-.1-.8,3.381,3.381,0,0,1,.33-1.493,3.517,3.517,0,0,1,.4-.645,3.572,3.572,0,0,1,1.226-1,3.631,3.631,0,0,1,.774-.28,3.7,3.7,0,0,1,.855-.1h.055a3.46,3.46,0,0,0,2.125-.7,3.363,3.363,0,0,0,.717-.752,3.436,3.436,0,0,0,.452-.918,3.367,3.367,0,0,0,.162-.979,3.211,3.211,0,0,0-.14-.99,3.153,3.153,0,0,0-.466-.932,3.511,3.511,0,0,0-.809-.793h0a3.6,3.6,0,0,1-.623-.562,3.4,3.4,0,0,1-.125-4.344,3.561,3.561,0,0,1,.586-.6h0a3.227,3.227,0,0,0,1.058-3.657,3.444,3.444,0,0,0-.468-.888,3.385,3.385,0,0,0-.715-.723,3.42,3.42,0,0,0-2.059-.656h-.5a3.671,3.671,0,0,1-.82-.092,3.6,3.6,0,0,1-1.412-.671,3.56,3.56,0,0,1-.551-.536,3.5,3.5,0,0,1-.406-.61,3.448,3.448,0,0,1-.269-.687,3.362,3.362,0,0,1-.116-.743,3.425,3.425,0,0,1,.057-.774h0a3.209,3.209,0,0,0-.678-2.691,3.6,3.6,0,0,0-2.748-1.286,3.411,3.411,0,0,0-2.36.949,3.587,3.587,0,0,1-1.817.912,3.687,3.687,0,0,1-.667.054Z" transform="translate(-506.347 -513.838)" fill="#fff"/>
        </g>
        <g id="Grupo_2" data-name="Grupo 2" transform="translate(1.875 2.14)">
          <path id="Caminho_3" data-name="Caminho 3" d="M413.2,428.116a4.943,4.943,0,0,1-1.211-.149,4.669,4.669,0,0,1-1.146-.457,4.533,4.533,0,0,1-1.012-.776,4.808,4.808,0,0,1-.787-1.071h0l-.017-.035a4.623,4.623,0,0,0-4.1-2.416,4.683,4.683,0,0,0-1.6.28,4.627,4.627,0,0,0-1.46.859,4.886,4.886,0,0,1-1.517.9,4.639,4.639,0,0,1-1.6.284,4.846,4.846,0,0,1-1.093-.127,4.987,4.987,0,0,1-1.954-.942,4.785,4.785,0,0,1-.769-.765,4.517,4.517,0,0,1-.514-.807,4.32,4.32,0,0,1-.332-.914,4.53,4.53,0,0,1,0-2.081,4.418,4.418,0,0,0,.112-1.021,4.324,4.324,0,0,0-.12-.977,4.387,4.387,0,0,0-.33-.909,4.514,4.514,0,0,0-.516-.813,4.626,4.626,0,0,0-3.642-1.749h-.306a4.946,4.946,0,0,1-1.581-.251,4.563,4.563,0,0,1-1.312-.687,4.624,4.624,0,0,1-.986-1.019,4.737,4.737,0,0,1-.63-1.246,4.644,4.644,0,0,1-.236-1.331,4.425,4.425,0,0,1,.17-1.353,4.35,4.35,0,0,1,.612-1.281,4.834,4.834,0,0,1,1.093-1.11,4.409,4.409,0,0,0,.05-7.078,4.831,4.831,0,0,1-1.064-1.117,4.351,4.351,0,0,1-.592-1.279,4.413,4.413,0,0,1-.157-1.347,4.643,4.643,0,0,1,.245-1.312,4.746,4.746,0,0,1,.634-1.237,4.647,4.647,0,0,1,.986-1.01,4.574,4.574,0,0,1,1.3-.68,4.924,4.924,0,0,1,1.567-.249h.45a4.63,4.63,0,0,0,3.62-1.714,4.532,4.532,0,0,0,.52-.8,4.384,4.384,0,0,0,.337-.9,4.311,4.311,0,0,0,.131-.968,4.414,4.414,0,0,0-.1-1.014,4.531,4.531,0,0,1,.024-2.066,4.336,4.336,0,0,1,.339-.9,4.5,4.5,0,0,1,.516-.8,4.776,4.776,0,0,1,.769-.754,4.994,4.994,0,0,1,1.945-.927,4.845,4.845,0,0,1,1.093-.125,4.632,4.632,0,0,1,1.633.3,4.87,4.87,0,0,1,1.53.936,4.634,4.634,0,0,0,2.284,1.108,4.763,4.763,0,0,0,3.15-.533,4.513,4.513,0,0,0,1.749-1.749h0a4.832,4.832,0,0,1,.809-1.082,4.539,4.539,0,0,1,1.006-.759,4.668,4.668,0,0,1,1.132-.437,4.919,4.919,0,0,1,1.2-.146,5.077,5.077,0,0,1,1.62.267,4.907,4.907,0,0,1,.754.328,4.728,4.728,0,0,1,.689.45,4.44,4.44,0,0,1,1.093,1.261,4.624,4.624,0,0,1,.577,1.712,4.389,4.389,0,0,0,.533,1.585,4.451,4.451,0,0,0,.463.656,4.577,4.577,0,0,0,.571.568,4.7,4.7,0,0,0,4.713.763,4.969,4.969,0,0,1,1.8-.345,4.647,4.647,0,0,1,1.312.188,4.729,4.729,0,0,1,1.165.522,4.859,4.859,0,0,1,.973.8,4.807,4.807,0,0,1,.732,1.012,4.585,4.585,0,0,1,.415,1.069,4.307,4.307,0,0,1-.072,2.348,4.785,4.785,0,0,1-.566,1.183,4.354,4.354,0,0,0-.472,3.867,4.518,4.518,0,0,0,2.914,2.8,4.948,4.948,0,0,1,1.432.726,4.457,4.457,0,0,1,1.629,2.317,4.676,4.676,0,0,1-.02,2.741,4.462,4.462,0,0,1-1.661,2.3,4.954,4.954,0,0,1-1.443.706,4.523,4.523,0,0,0-2.955,2.763,4.354,4.354,0,0,0,.417,3.874v.015a4.763,4.763,0,0,1,.536,1.165,4.306,4.306,0,0,1,.046,2.332,4.569,4.569,0,0,1-.422,1.058,4.852,4.852,0,0,1-1.707,1.788,4.736,4.736,0,0,1-1.161.516,4.641,4.641,0,0,1-1.3.186,4.941,4.941,0,0,1-1.856-.37h0a4.7,4.7,0,0,0-4.737.724,4.478,4.478,0,0,0-1.036,1.213,4.392,4.392,0,0,0-.547,1.565,4.635,4.635,0,0,1-.592,1.69,4.441,4.441,0,0,1-1.093,1.242,4.742,4.742,0,0,1-.684.437,4.94,4.94,0,0,1-.748.321,5.069,5.069,0,0,1-1.6.26Zm-4.077-2.584h0l.02.035a4.7,4.7,0,0,0,.785,1.076,4.4,4.4,0,0,0,.981.754,4.673,4.673,0,0,0,2.293.59,4.826,4.826,0,0,0,2.958-1,4.346,4.346,0,0,0,1.639-2.842,4.522,4.522,0,0,1,.564-1.611,4.6,4.6,0,0,1,1.067-1.248,4.833,4.833,0,0,1,4.879-.739h0a4.809,4.809,0,0,0,1.8.356,4.562,4.562,0,0,0,2.389-.68,4.713,4.713,0,0,0,1.661-1.749,4.431,4.431,0,0,0,.409-1.027,4.178,4.178,0,0,0-.046-2.263,4.647,4.647,0,0,0-.531-1.15v-.015a4.6,4.6,0,0,1-.461-.962,4.452,4.452,0,0,1-.2-2.031,4.55,4.55,0,0,1,.243-.979,4.62,4.62,0,0,1,1.139-1.736,4.679,4.679,0,0,1,.863-.656,4.852,4.852,0,0,1,1.038-.455,4.824,4.824,0,0,0,1.406-.686,4.333,4.333,0,0,0,1.613-2.23,4.545,4.545,0,0,0,.017-2.665,4.327,4.327,0,0,0-1.58-2.249,4.809,4.809,0,0,0-1.395-.706,4.861,4.861,0,0,1-1.03-.468,4.633,4.633,0,0,1-1.97-2.411,4.563,4.563,0,0,1-.219-.982,4.455,4.455,0,0,1,.219-2.029,4.618,4.618,0,0,1,.485-.973,4.656,4.656,0,0,0,.551-1.15,4.178,4.178,0,0,0,.07-2.276,4.442,4.442,0,0,0-.4-1.038,4.709,4.709,0,0,0-1.659-1.749,4.555,4.555,0,0,0-2.4-.688,4.833,4.833,0,0,0-1.749.337,4.833,4.833,0,0,1-4.844-.785,4.678,4.678,0,0,1-.588-.584,4.585,4.585,0,0,1-.476-.686,4.522,4.522,0,0,1-.549-1.633,4.339,4.339,0,0,0-1.624-2.888,4.83,4.83,0,0,0-2.984-1.016,4.669,4.669,0,0,0-2.265.575,4.413,4.413,0,0,0-.975.737,4.7,4.7,0,0,0-.783,1.045h0a4.642,4.642,0,0,1-1.795,1.808,4.9,4.9,0,0,1-3.237.549,4.82,4.82,0,0,1-.831-.219,4.751,4.751,0,0,1-1.53-.916,4.573,4.573,0,0,0-3.08-1.2,4.809,4.809,0,0,0-3.7,1.749,4.283,4.283,0,0,0-.85,3.655,4.55,4.55,0,0,1,.1,1.043,4.456,4.456,0,0,1-.135,1,4.516,4.516,0,0,1-.348.925,4.637,4.637,0,0,1-.533.826,4.753,4.753,0,0,1-2.623,1.637,4.892,4.892,0,0,1-1.093.125h-.437a4.789,4.789,0,0,0-1.53.243,4.436,4.436,0,0,0-1.259.656,4.5,4.5,0,0,0-.957.982,4.617,4.617,0,0,0-.616,1.2,4.51,4.51,0,0,0-.238,1.283,4.285,4.285,0,0,0,.151,1.312,4.223,4.223,0,0,0,.575,1.242A4.7,4.7,0,0,0,386.535,399a4.732,4.732,0,0,1,.8.772,4.529,4.529,0,0,1-.039,5.754,4.731,4.731,0,0,1-.807.763,4.706,4.706,0,0,0-1.056,1.082,4.225,4.225,0,0,0-.592,1.242,4.286,4.286,0,0,0-.164,1.312,4.509,4.509,0,0,0,.23,1.294,4.6,4.6,0,0,0,.612,1.211,4.5,4.5,0,0,0,.958.99,4.432,4.432,0,0,0,1.266.667,4.809,4.809,0,0,0,1.53.245h.3a4.895,4.895,0,0,1,1.113.127,4.745,4.745,0,0,1,2.623,1.659,4.639,4.639,0,0,1,.531.835,4.535,4.535,0,0,1,.341.936,4.458,4.458,0,0,1,.125,1.008,4.554,4.554,0,0,1-.116,1.049,4.278,4.278,0,0,0,.818,3.69,4.644,4.644,0,0,0,.748.743,4.857,4.857,0,0,0,1.9.916,4.7,4.7,0,0,0,1.067.125,4.59,4.59,0,0,0,3.034-1.156,4.767,4.767,0,0,1,2.317-1.093,4.9,4.9,0,0,1,3.251.566,4.637,4.637,0,0,1,1.779,1.812Z" transform="translate(-383.123 -377.162)" fill="#fff"/>
          <path id="Caminho_4" data-name="Caminho 4" d="M375.123,369.491a4.908,4.908,0,0,1,1.165.14,4.643,4.643,0,0,1,1.11.437,4.54,4.54,0,0,1,.992.728,4.84,4.84,0,0,1,.791,1.008h0l.02.033a4.508,4.508,0,0,0,1.736,1.688,4.744,4.744,0,0,0,2.276.579,4.642,4.642,0,0,0,3.181-1.248,4.843,4.843,0,0,1,1.561-.988,4.629,4.629,0,0,1,1.677-.313h0a4.859,4.859,0,0,1,1.073.12,4.991,4.991,0,0,1,1.924.9,4.747,4.747,0,0,1,.767.737,4.5,4.5,0,0,1,.518.778,4.327,4.327,0,0,1,.348.885,4.53,4.53,0,0,1,.065,2.035,4.409,4.409,0,0,0-.074,1,4.316,4.316,0,0,0,.149.953,4.368,4.368,0,0,0,.345.874,4.51,4.51,0,0,0,.523.783,4.626,4.626,0,0,0,3.576,1.67h.317c.116,0,.234-.011.348-.011a4.874,4.874,0,0,1,1.541.245,4.564,4.564,0,0,1,1.283.667,4.645,4.645,0,0,1,.981.992,4.735,4.735,0,0,1,.641,1.22,4.625,4.625,0,0,1,.258,1.312,4.394,4.394,0,0,1-.133,1.333,4.343,4.343,0,0,1-.564,1.275,4.813,4.813,0,0,1-1.028,1.126h-.013a4.4,4.4,0,0,0,.219,7.052h0a4.828,4.828,0,0,1,1.115,1.093,4.353,4.353,0,0,1,.638,1.279,4.414,4.414,0,0,1,.192,1.362,4.642,4.642,0,0,1-.219,1.344,4.719,4.719,0,0,1-.621,1.259,4.564,4.564,0,0,1-2.3,1.729,4.988,4.988,0,0,1-1.6.256h-.072a4.771,4.771,0,0,0-1.094.127,4.591,4.591,0,0,0-2.57,1.648,4.359,4.359,0,0,0-.8,3.771,4.75,4.75,0,0,1,.147,1.093,4.312,4.312,0,0,1-.422,1.946,4.511,4.511,0,0,1-.509.822,4.763,4.763,0,0,1-.767.78,4.978,4.978,0,0,1-1.967.964,4.814,4.814,0,0,1-1.108.131,4.627,4.627,0,0,1-1.556-.267,4.887,4.887,0,0,1-1.482-.85,4.644,4.644,0,0,0-2.975-1.069,4.736,4.736,0,0,0-2.405.656,4.489,4.489,0,0,0-1.748,1.849h0a4.8,4.8,0,0,1-.8,1.143,4.524,4.524,0,0,1-1.019.8,4.811,4.811,0,0,1-2.4.63,4.952,4.952,0,0,1-2.988-.99,4.439,4.439,0,0,1-1.093-1.2,4.624,4.624,0,0,1-.605-1.594h0v-.055a4.385,4.385,0,0,0-.571-1.53,4.47,4.47,0,0,0-1.036-1.178,4.7,4.7,0,0,0-3.867-.934,4.771,4.771,0,0,0-.927.291h-.013a4.906,4.906,0,0,1-1.935.407,4.636,4.636,0,0,1-1.281-.179,4.753,4.753,0,0,1-1.15-.5,4.861,4.861,0,0,1-.968-.772,4.8,4.8,0,0,1-.739-.984,4.563,4.563,0,0,1-.437-1.038,4.3,4.3,0,0,1,0-2.3,4.769,4.769,0,0,1,.5-1.161h0v-.015a4.344,4.344,0,0,0,.326-3.871,4.52,4.52,0,0,0-3.008-2.691h0a4.944,4.944,0,0,1-1.458-.673,4.46,4.46,0,0,1-1.712-2.258,4.667,4.667,0,0,1-.081-2.735,4.44,4.44,0,0,1,1.569-2.346,4.931,4.931,0,0,1,1.41-.754,4.5,4.5,0,0,0,2.842-2.857,4.348,4.348,0,0,0-.562-3.852l-.011-.017a4.769,4.769,0,0,1-.586-1.165,4.3,4.3,0,0,1-.111-2.367,4.563,4.563,0,0,1,.406-1.093,4.8,4.8,0,0,1,.726-1.025,4.849,4.849,0,0,1,.973-.809,4.718,4.718,0,0,1,1.172-.531,4.642,4.642,0,0,1,1.312-.19,4.976,4.976,0,0,1,1.7.306h.013a4.689,4.689,0,0,0,4.634-.84,4.565,4.565,0,0,0,.571-.584,4.382,4.382,0,0,0,.964-2.3,4.6,4.6,0,0,1,.549-1.749,4.426,4.426,0,0,1,1.093-1.294,4.736,4.736,0,0,1,.7-.463,4.916,4.916,0,0,1,.763-.336,5.058,5.058,0,0,1,1.644-.276Zm3.985,2.433h0l-.02-.033a4.7,4.7,0,0,0-.789-1.012,4.406,4.406,0,0,0-.962-.708,4.516,4.516,0,0,0-1.078-.415,4.756,4.756,0,0,0-1.135-.136,4.529,4.529,0,0,0-4.615,4,4.512,4.512,0,0,1-.993,2.365,4.681,4.681,0,0,1-.588.6,4.815,4.815,0,0,1-4.776.857h-.013a4.851,4.851,0,0,0-1.64-.293,4.535,4.535,0,0,0-2.42.7,4.694,4.694,0,0,0-1.653,1.784,4.449,4.449,0,0,0-.393,1.054,4.168,4.168,0,0,0,.109,2.3,4.645,4.645,0,0,0,.581,1.15l.011.017a4.609,4.609,0,0,1,.5.944,4.448,4.448,0,0,1,.276,2.022,4.564,4.564,0,0,1-1.277,2.754,4.649,4.649,0,0,1-.835.68,4.831,4.831,0,0,1-1.017.49,4.8,4.8,0,0,0-1.373.734,4.311,4.311,0,0,0-1.53,2.276,4.536,4.536,0,0,0,.079,2.658,4.331,4.331,0,0,0,1.661,2.186,4.824,4.824,0,0,0,1.412.656h0a4.854,4.854,0,0,1,1.047.437,4.684,4.684,0,0,1,.874.632,4.618,4.618,0,0,1,1.178,1.707,4.544,4.544,0,0,1,.265.971,4.445,4.445,0,0,1-.153,2.031,4.585,4.585,0,0,1-.437.971h0v.015a4.247,4.247,0,0,0-.09,4.387,4.71,4.71,0,0,0,1.661,1.707,4.565,4.565,0,0,0,2.363.656,4.783,4.783,0,0,0,1.9-.4h.013a4.886,4.886,0,0,1,.94-.293,4.825,4.825,0,0,1,3.974.96,4.6,4.6,0,0,1,1.067,1.213,4.513,4.513,0,0,1,.577,1.517h0v.055a4.348,4.348,0,0,0,1.659,2.77,4.809,4.809,0,0,0,2.907.962,4.505,4.505,0,0,0,4.1-2.5h0a4.623,4.623,0,0,1,1.8-1.911,4.806,4.806,0,0,1,1.185-.5,4.9,4.9,0,0,1,1.274-.168,4.776,4.776,0,0,1,3.06,1.093,4.59,4.59,0,0,0,2.953,1.093,4.658,4.658,0,0,0,1.078-.127,4.839,4.839,0,0,0,1.915-.94,4.633,4.633,0,0,0,.748-.758,4.263,4.263,0,0,0,.761-3.74,4.538,4.538,0,0,1-.14-1.06,4.437,4.437,0,0,1,.107-1.021,4.505,4.505,0,0,1,.328-.951,4.627,4.627,0,0,1,.527-.853,4.737,4.737,0,0,1,2.645-1.694,4.9,4.9,0,0,1,1.128-.131h.072a4.861,4.861,0,0,0,1.559-.249,4.435,4.435,0,0,0,2.23-1.679,4.6,4.6,0,0,0,.6-1.224,4.511,4.511,0,0,0,.219-1.312,4.285,4.285,0,0,0-.186-1.312,4.217,4.217,0,0,0-.621-1.242,4.7,4.7,0,0,0-1.093-1.067h0a4.73,4.73,0,0,1-.82-.741,4.517,4.517,0,0,1-.175-5.738,4.712,4.712,0,0,1,.774-.789h.013a4.68,4.68,0,0,0,.986-1.093,4.216,4.216,0,0,0,.546-1.237,4.267,4.267,0,0,0,.129-1.294,4.491,4.491,0,0,0-.251-1.264,4.6,4.6,0,0,0-.623-1.185,4.508,4.508,0,0,0-.955-.964A4.437,4.437,0,0,0,401,382.64a4.742,4.742,0,0,0-1.5-.238c-.114,0-.219,0-.341.011h-.324a4.848,4.848,0,0,1-1.093-.122,4.746,4.746,0,0,1-2.595-1.6,4.643,4.643,0,0,1-.538-.806,4.513,4.513,0,0,1-.356-.907A4.435,4.435,0,0,1,394.1,378a4.536,4.536,0,0,1,.077-1.03,4.394,4.394,0,0,0-.063-1.967,4.18,4.18,0,0,0-.337-.859,4.363,4.363,0,0,0-.5-.754,4.809,4.809,0,0,0-3.664-1.712h0a4.5,4.5,0,0,0-1.631.3,4.714,4.714,0,0,0-1.519.962,4.728,4.728,0,0,1-1.548.966,4.783,4.783,0,0,1-.852.238,4.887,4.887,0,0,1-3.211-.516,4.636,4.636,0,0,1-1.766-1.705Z" transform="translate(-353.147 -369.491)" fill="#fff"/>
        </g>
      </g>
    </g>
    <text id="H" transform="translate(842 558)" fill="#fff" font-size="78" font-family="Helvetica"><tspan x="0" y="0">H</tspan></text>
    <text id="LLUS" transform="translate(958 558)" fill="#fff" font-size="78" font-family="Helvetica"><tspan x="0" y="0">LLUS</tspan></text>
  </g>
</svg>
