<svg xmlns="http://www.w3.org/2000/svg" xmlns:xlink="http://www.w3.org/1999/xlink" width="141" height="35" viewBox="0 0 141 35">
  <defs>
    <radialGradient id="radial-gradient" cx="0.5" cy="0.5" r="0.514" gradientTransform="translate(0.015 0.015) scale(0.973 0.973)" gradientUnits="objectBoundingBox">
      <stop offset="0.782" stop-color="#fce8a1"/>
      <stop offset="1" stop-color="#ffd303"/>
    </radialGradient>
    <radialGradient id="radial-gradient-2" cx="0.5" cy="0.5" r="0.514" gradientTransform="translate(0.015 0.027) scale(0.973 0.95)" gradientUnits="objectBoundingBox">
      <stop offset="0.796" stop-color="#ffe66f"/>
      <stop offset="0.966" stop-color="#fff000"/>
    </radialGradient>
    <radialGradient id="radial-gradient-3" cx="0.5" cy="0.5" r="0.514" gradientTransform="translate(0.016 0.016) scale(0.973 0.973)" gradientUnits="objectBoundingBox">
      <stop offset="0.209" stop-color="#faf28e"/>
      <stop offset="0.785" stop-color="#fff000"/>
      <stop offset="0.992" stop-color="#ffd303"/>
    </radialGradient>
  </defs>
  <g id="Grupo_17510" data-name="Grupo 17510" transform="translate(-993 -825)">
    <g id="Grupo_17508" data-name="Grupo 17508" transform="translate(1019 827.641)">
      <g id="Grupo_17507" data-name="Grupo 17507">
        <ellipse id="Elipse_1" data-name="Elipse 1" cx="12.85" cy="12.5" rx="12.85" ry="12.5" transform="translate(0.15 0.15)" fill="url(#radial-gradient)"/>
        <path id="Elipse_1_-_Contorno" data-name="Elipse 1 - Contorno" d="M5.5-7.5a12.843,12.843,0,0,1,13,12.65A12.843,12.843,0,0,1,5.5,17.8,12.843,12.843,0,0,1-7.5,5.15,12.843,12.843,0,0,1,5.5-7.5Zm0,25A12.543,12.543,0,0,0,18.2,5.15,12.543,12.543,0,0,0,5.5-7.2,12.543,12.543,0,0,0-7.2,5.15,12.543,12.543,0,0,0,5.5,17.5Z" transform="translate(7.5 7.5)" fill="#fff"/>
        <ellipse id="Elipse_2" data-name="Elipse 2" cx="9.779" cy="9.513" rx="9.779" ry="9.513" transform="translate(3.221 3.057)" fill="url(#radial-gradient-2)"/>
        <path id="Elipse_2_-_Contorno" data-name="Elipse 2 - Contorno" d="M2.429-7.5a9.809,9.809,0,0,1,9.929,9.663,9.809,9.809,0,0,1-9.929,9.663A9.809,9.809,0,0,1-7.5,2.162,9.809,9.809,0,0,1,2.429-7.5Zm0,19.025a9.51,9.51,0,0,0,9.629-9.363A9.51,9.51,0,0,0,2.429-7.2,9.51,9.51,0,0,0-7.2,2.162,9.51,9.51,0,0,0,2.429,11.525Z" transform="translate(10.571 10.407)" fill="#fff"/>
        <ellipse id="Elipse_3" data-name="Elipse 3" cx="6.35" cy="6.178" rx="6.35" ry="6.178" transform="translate(6.649 6.533)" fill="url(#radial-gradient-3)"/>
        <path id="Elipse_3_-_Contorno" data-name="Elipse 3 - Contorno" d="M-10.8-17.5a6.623,6.623,0,0,1,6.7,6.527,6.623,6.623,0,0,1-6.7,6.527,6.623,6.623,0,0,1-6.7-6.527A6.623,6.623,0,0,1-10.8-17.5Zm0,12.355a5.923,5.923,0,0,0,6-5.828,5.923,5.923,0,0,0-6-5.828,5.923,5.923,0,0,0-6,5.828A5.923,5.923,0,0,0-10.8-5.145Z" transform="translate(23.8 23.683)" fill="#fff"/>
        <g id="Grupo_1" data-name="Grupo 1" transform="translate(3.937 3.862)">
          <path id="Caminho_1" data-name="Caminho 1" d="M539.874,537.345a1.712,1.712,0,0,1-.419-.052,1.617,1.617,0,0,1-.4-.158,1.571,1.571,0,0,1-.35-.269,1.672,1.672,0,0,1-.279-.383,1.586,1.586,0,0,0-1.407-.829,1.608,1.608,0,0,0-.55.1,1.588,1.588,0,0,0-.5.294h0a1.691,1.691,0,0,1-.525.313,1.6,1.6,0,0,1-.556.1,1.675,1.675,0,0,1-.38-.044,1.725,1.725,0,0,1-.677-.326,1.657,1.657,0,0,1-.266-.265,1.564,1.564,0,0,1-.178-.279,1.508,1.508,0,0,1-.115-.317,1.568,1.568,0,0,1,0-.717h0v0a1.5,1.5,0,0,0-.294-1.275,1.587,1.587,0,0,0-1.249-.6h-.105a1.715,1.715,0,0,1-.547-.087,1.581,1.581,0,0,1-.451-.238,1.6,1.6,0,0,1-.341-.353,1.638,1.638,0,0,1-.218-.431,1.611,1.611,0,0,1-.082-.461,1.533,1.533,0,0,1,.059-.469,1.512,1.512,0,0,1,.212-.444,1.674,1.674,0,0,1,.373-.383h0l0,0a1.513,1.513,0,0,0,.017-2.428,1.671,1.671,0,0,1-.368-.387,1.51,1.51,0,0,1-.206-.443,1.533,1.533,0,0,1-.054-.467,1.6,1.6,0,0,1,.085-.457,1.64,1.64,0,0,1,.22-.428,1.607,1.607,0,0,1,.341-.349,1.582,1.582,0,0,1,.449-.236,1.706,1.706,0,0,1,.542-.086l.08,0h0l.072,0a1.588,1.588,0,0,0,1.242-.588,1.544,1.544,0,0,0,.178-.275,1.486,1.486,0,0,0,.161-.64,1.518,1.518,0,0,0-.033-.348,1.569,1.569,0,0,1,.008-.715,1.5,1.5,0,0,1,.117-.313,1.572,1.572,0,0,1,.179-.276,1.659,1.659,0,0,1,.266-.261,1.728,1.728,0,0,1,.673-.321,1.68,1.68,0,0,1,.377-.043,1.6,1.6,0,0,1,.566.1,1.686,1.686,0,0,1,.531.324,1.608,1.608,0,0,0,2.461-.4l0,0a1.674,1.674,0,0,1,.28-.374,1.577,1.577,0,0,1,.348-.263,1.62,1.62,0,0,1,.392-.155,1.71,1.71,0,0,1,.414-.051,1.749,1.749,0,0,1,.561.092,1.664,1.664,0,0,1,.5.269,1.535,1.535,0,0,1,.38.437,1.6,1.6,0,0,1,.2.593v0a1.573,1.573,0,0,0,1.568,1.337,1.618,1.618,0,0,0,.586-.11,1.717,1.717,0,0,1,.622-.119,1.611,1.611,0,0,1,.452.065,1.64,1.64,0,0,1,.4.181,1.68,1.68,0,0,1,.59.626,1.589,1.589,0,0,1,.144.37,1.492,1.492,0,0,1-.025.813,1.655,1.655,0,0,1-.2.409,1.494,1.494,0,0,0-.162,1.327,1.55,1.55,0,0,0,1,.961,1.711,1.711,0,0,1,.5.251,1.543,1.543,0,0,1,.564.8,1.619,1.619,0,0,1-.006.949,1.547,1.547,0,0,1-.575.8,1.711,1.711,0,0,1-.5.244,1.552,1.552,0,0,0-1.014.948,1.493,1.493,0,0,0,.143,1.328l0,.007a1.659,1.659,0,0,1,.184.4,1.493,1.493,0,0,1,.016.808,1.584,1.584,0,0,1-.146.367,1.681,1.681,0,0,1-.591.62,1.642,1.642,0,0,1-.4.179,1.61,1.61,0,0,1-.449.064h0a1.711,1.711,0,0,1-.642-.128,1.613,1.613,0,0,0-1.629.247,1.532,1.532,0,0,0-.355.416,1.505,1.505,0,0,0-.188.537l0,.026h0a1.6,1.6,0,0,1-.2.559,1.535,1.535,0,0,1-.38.43,1.663,1.663,0,0,1-.5.265A1.749,1.749,0,0,1,539.874,537.345Zm-2.852-1.75a1.69,1.69,0,0,1,.837.221,1.607,1.607,0,0,1,.622.64,1.608,1.608,0,0,0,.269.369,1.508,1.508,0,0,0,.337.258,1.6,1.6,0,0,0,.786.2,1.657,1.657,0,0,0,1.015-.342,1.491,1.491,0,0,0,.562-.976l0-.026h0a1.565,1.565,0,0,1,.191-.532,1.591,1.591,0,0,1,.369-.432,1.673,1.673,0,0,1,1.689-.256,1.653,1.653,0,0,0,.62.124h0a1.565,1.565,0,0,0,.82-.234,1.617,1.617,0,0,0,.57-.6,1.52,1.52,0,0,0,.14-.353,1.433,1.433,0,0,0-.016-.776,1.6,1.6,0,0,0-.182-.394l0-.007a1.6,1.6,0,0,1-.159-.331,1.545,1.545,0,0,1-.07-.7,1.59,1.59,0,0,1,.246-.66,1.606,1.606,0,0,1,.532-.506,1.67,1.67,0,0,1,.359-.158,1.56,1.56,0,0,0,.827-.581,1.5,1.5,0,0,0,.208-.419,1.56,1.56,0,0,0,.006-.914,1.5,1.5,0,0,0-.2-.422,1.558,1.558,0,0,0-.818-.592,1.686,1.686,0,0,1-.357-.162,1.605,1.605,0,0,1-.524-.513,1.6,1.6,0,0,1-.157-.323,1.571,1.571,0,0,1-.079-.34,1.546,1.546,0,0,1,.079-.7,1.6,1.6,0,0,1,.168-.337,1.588,1.588,0,0,0,.189-.395,1.438,1.438,0,0,0,.066-.4,1.486,1.486,0,0,0-.181-.74,1.616,1.616,0,0,0-.569-.6,1.562,1.562,0,0,0-.824-.236,1.659,1.659,0,0,0-.6.115,1.674,1.674,0,0,1-1.677-.272,1.591,1.591,0,0,1-.369-.44,1.566,1.566,0,0,1-.19-.565v0A1.488,1.488,0,0,0,541,520.3a1.656,1.656,0,0,0-1.023-.349,1.6,1.6,0,0,0-.777.2,1.507,1.507,0,0,0-.335.253,1.61,1.61,0,0,0-.268.357l0,0a1.606,1.606,0,0,1-.621.626,1.69,1.69,0,0,1-.827.215,1.668,1.668,0,0,1-.581-.1,1.644,1.644,0,0,1-.526-.317,1.569,1.569,0,0,0-1.057-.411,1.648,1.648,0,0,0-1.27.6,1.469,1.469,0,0,0-.292,1.254,1.569,1.569,0,0,1,.035.361,1.53,1.53,0,0,1-.047.346,1.565,1.565,0,0,1-.12.321,1.611,1.611,0,0,1-.185.286,1.646,1.646,0,0,1-.907.567,1.692,1.692,0,0,1-.382.043l-.074,0h0l-.078,0a1.574,1.574,0,0,0-.955.31,1.547,1.547,0,0,0-.328.336,1.586,1.586,0,0,0-.212.412,1.549,1.549,0,0,0-.082.44,1.467,1.467,0,0,0,.052.448,1.448,1.448,0,0,0,.2.426,1.61,1.61,0,0,0,.355.373,1.634,1.634,0,0,1,.275.268,1.567,1.567,0,0,1-.014,1.992,1.641,1.641,0,0,1-.277.262h0l0,0a1.614,1.614,0,0,0-.362.371,1.449,1.449,0,0,0-.2.426,1.471,1.471,0,0,0-.057.451,1.548,1.548,0,0,0,.079.444,1.581,1.581,0,0,0,.21.416,1.541,1.541,0,0,0,.328.339,1.578,1.578,0,0,0,.962.313h.105a1.693,1.693,0,0,1,.385.044,1.644,1.644,0,0,1,.911.575,1.612,1.612,0,0,1,.184.289,1.567,1.567,0,0,1,.118.324,1.545,1.545,0,0,1,.043.349,1.574,1.574,0,0,1-.039.36h0v0a1.467,1.467,0,0,0,.281,1.266,1.645,1.645,0,0,0,1.276.612,1.573,1.573,0,0,0,1.041-.4h0a1.648,1.648,0,0,1,.52-.306A1.669,1.669,0,0,1,537.022,535.6Z" transform="translate(-529.515 -519.768)" fill="#fff"/>
          <path id="Caminho_2" data-name="Caminho 2" d="M513.923,513.845a1.7,1.7,0,0,1,.4.048,1.616,1.616,0,0,1,.384.148,1.576,1.576,0,0,1,.343.252,1.672,1.672,0,0,1,.281.36,1.549,1.549,0,0,0,.6.579,1.629,1.629,0,0,0,.781.2A1.592,1.592,0,0,0,517.8,515a1.679,1.679,0,0,1,.54-.342,1.6,1.6,0,0,1,.581-.108h0a1.676,1.676,0,0,1,.371.042,1.732,1.732,0,0,1,.666.312,1.649,1.649,0,0,1,.266.255,1.562,1.562,0,0,1,.18.269,1.5,1.5,0,0,1,.12.307,1.566,1.566,0,0,1,.023.7h0v0a1.511,1.511,0,0,0-.025.343,1.484,1.484,0,0,0,.051.326,1.5,1.5,0,0,0,.119.3,1.557,1.557,0,0,0,.179.269,1.587,1.587,0,0,0,1.227.573c.036,0,.073,0,.109,0s.081,0,.121,0a1.685,1.685,0,0,1,.534.085,1.58,1.58,0,0,1,.444.231,1.609,1.609,0,0,1,.34.344,1.645,1.645,0,0,1,.222.422,1.6,1.6,0,0,1,.089.451,1.521,1.521,0,0,1-.046.462,1.5,1.5,0,0,1-.2.442,1.665,1.665,0,0,1-.356.39l0,0a1.509,1.509,0,0,0,.076,2.416l0,0a1.672,1.672,0,0,1,.387.38,1.5,1.5,0,0,1,.221.443,1.532,1.532,0,0,1,.067.472,1.611,1.611,0,0,1-.076.465,1.634,1.634,0,0,1-.215.436,1.6,1.6,0,0,1-.341.357,1.577,1.577,0,0,1-.454.241,1.726,1.726,0,0,1-.554.089h-.025a1.582,1.582,0,0,0-1.259.609,1.5,1.5,0,0,0-.276,1.287l0,.006a1.564,1.564,0,0,1,.016.728,1.5,1.5,0,0,1-.111.322,1.569,1.569,0,0,1-.176.284,1.651,1.651,0,0,1-.266.27,1.72,1.72,0,0,1-.681.334,1.664,1.664,0,0,1-.384.045,1.633,1.633,0,0,1-1.051-.387,1.6,1.6,0,0,0-2.44.489l0,0a1.665,1.665,0,0,1-.277.4,1.568,1.568,0,0,1-.353.278,1.664,1.664,0,0,1-.831.218,1.714,1.714,0,0,1-1.034-.343,1.535,1.535,0,0,1-.379-.417,1.6,1.6,0,0,1-.213-.57,1.5,1.5,0,0,0-.2-.524,1.534,1.534,0,0,0-.355-.4,1.61,1.61,0,0,0-1.645-.221,1.7,1.7,0,0,1-.674.142,1.607,1.607,0,0,1-.443-.062,1.648,1.648,0,0,1-.4-.174,1.677,1.677,0,0,1-.591-.608,1.578,1.578,0,0,1-.148-.36,1.489,1.489,0,0,1,0-.8,1.646,1.646,0,0,1,.178-.407,1.49,1.49,0,0,0,.112-1.328,1.551,1.551,0,0,0-1.034-.924,1.714,1.714,0,0,1-.5-.233,1.546,1.546,0,0,1-.593-.782,1.619,1.619,0,0,1-.028-.947,1.551,1.551,0,0,1,.2-.442,1.536,1.536,0,0,1,.344-.37,1.705,1.705,0,0,1,.488-.261,1.544,1.544,0,0,0,.975-.98,1.492,1.492,0,0,0-.193-1.321,1.651,1.651,0,0,1-.207-.409,1.491,1.491,0,0,1-.039-.82,1.578,1.578,0,0,1,.141-.375,1.664,1.664,0,0,1,.251-.355,1.686,1.686,0,0,1,.337-.28,1.632,1.632,0,0,1,.406-.184,1.6,1.6,0,0,1,.456-.066,1.724,1.724,0,0,1,.588.106l.007,0a1.615,1.615,0,0,0,.545.095,1.561,1.561,0,0,0,1.569-1.371,1.593,1.593,0,0,1,.19-.6,1.533,1.533,0,0,1,.379-.448,1.665,1.665,0,0,1,.5-.278,1.759,1.759,0,0,1,.569-.1Zm2.788,1.646a1.687,1.687,0,0,1-.809-.206,1.607,1.607,0,0,1-.618-.6,1.612,1.612,0,0,0-.271-.347,1.515,1.515,0,0,0-.33-.243,1.6,1.6,0,0,0-.759-.189,1.554,1.554,0,0,0-1.583,1.372,1.559,1.559,0,0,1-.18.576,1.592,1.592,0,0,1-.367.451,1.66,1.66,0,0,1-.237.168,1.692,1.692,0,0,1-.263.125,1.669,1.669,0,0,1-1.154,0l-.008,0a1.663,1.663,0,0,0-.56-.1,1.556,1.556,0,0,0-.83.241,1.608,1.608,0,0,0-.567.612,1.482,1.482,0,0,0-.172.749,1.436,1.436,0,0,0,.074.4,1.6,1.6,0,0,0,.2.394,1.588,1.588,0,0,1,.176.332,1.542,1.542,0,0,1,.1.7,1.58,1.58,0,0,1-.221.667,1.6,1.6,0,0,1-.511.523,1.673,1.673,0,0,1-.352.17,1.553,1.553,0,0,0-.8.608,1.488,1.488,0,0,0-.192.424,1.558,1.558,0,0,0,.027.912,1.5,1.5,0,0,0,.218.414,1.559,1.559,0,0,0,.839.562,1.684,1.684,0,0,1,.362.149,1.62,1.62,0,0,1,.3.219,1.6,1.6,0,0,1,.408.591,1.579,1.579,0,0,1,.091.336,1.54,1.54,0,0,1-.053.7,1.592,1.592,0,0,1-.155.342,1.457,1.457,0,0,0-.031,1.5,1.619,1.619,0,0,0,.57.586,1.568,1.568,0,0,0,.811.228,1.641,1.641,0,0,0,.65-.138,1.7,1.7,0,0,1,.33-.1,1.67,1.67,0,0,1,1.376.332,1.594,1.594,0,0,1,.369.42,1.563,1.563,0,0,1,.2.544,1.493,1.493,0,0,0,.569.95,1.654,1.654,0,0,0,1,.33,1.546,1.546,0,0,0,1.406-.856v0a1.6,1.6,0,0,1,.622-.662,1.664,1.664,0,0,1,.411-.172,1.7,1.7,0,0,1,.441-.058,1.662,1.662,0,0,1,.552.093,1.645,1.645,0,0,1,.507.287,1.575,1.575,0,0,0,1.013.373,1.6,1.6,0,0,0,.37-.044,1.661,1.661,0,0,0,.347-.125,1.631,1.631,0,0,0,.566-.457,1.461,1.461,0,0,0,.263-1.276l0-.006a1.564,1.564,0,0,1-.048-.367,1.547,1.547,0,0,1,.151-.683,1.608,1.608,0,0,1,.182-.295,1.634,1.634,0,0,1,.561-.459,1.656,1.656,0,0,1,.354-.128,1.69,1.69,0,0,1,.391-.045h.025a1.584,1.584,0,0,0,.972-.318,1.539,1.539,0,0,0,.328-.344,1.572,1.572,0,0,0,.207-.42,1.538,1.538,0,0,0,.074-.448,1.465,1.465,0,0,0-.064-.453,1.442,1.442,0,0,0-.213-.426,1.608,1.608,0,0,0-.37-.363l0,0a1.648,1.648,0,0,1-.285-.257,1.567,1.567,0,0,1-.357-1.335,1.56,1.56,0,0,1,.3-.652,1.635,1.635,0,0,1,.268-.273l0,0a1.476,1.476,0,0,0,.484-1.673,1.579,1.579,0,0,0-.214-.406,1.547,1.547,0,0,0-.327-.331,1.565,1.565,0,0,0-.942-.3c-.039,0-.078,0-.117,0s-.075,0-.113,0a1.681,1.681,0,0,1-.375-.042,1.648,1.648,0,0,1-.646-.307,1.632,1.632,0,0,1-.252-.245,1.6,1.6,0,0,1-.186-.279,1.574,1.574,0,0,1-.123-.314,1.54,1.54,0,0,1-.053-.34,1.569,1.569,0,0,1,.026-.354h0v0a1.468,1.468,0,0,0-.31-1.231,1.648,1.648,0,0,0-1.257-.588,1.561,1.561,0,0,0-1.08.434,1.634,1.634,0,0,1-.536.335,1.651,1.651,0,0,1-.295.082A1.688,1.688,0,0,1,516.711,515.492Z" transform="translate(-506.355 -513.845)" fill="#fff"/>
        </g>
        <g id="Grupo_2" data-name="Grupo 2" transform="translate(0.877 0.978)">
          <path id="Caminho_3" data-name="Caminho 3" d="M397.644,400.661a2.26,2.26,0,0,1-.554-.068,2.133,2.133,0,0,1-.524-.209,2.072,2.072,0,0,1-.463-.355,2.2,2.2,0,0,1-.36-.49h0l-.008-.016a2.115,2.115,0,0,0-1.876-1.105,2.143,2.143,0,0,0-.733.128,2.116,2.116,0,0,0-.668.393,2.235,2.235,0,0,1-.694.413,2.121,2.121,0,0,1-.734.13,2.215,2.215,0,0,1-.5-.058,2.282,2.282,0,0,1-.894-.431,2.185,2.185,0,0,1-.352-.35,2.065,2.065,0,0,1-.235-.369,1.979,1.979,0,0,1-.152-.418,2.072,2.072,0,0,1,0-.952,2.023,2.023,0,0,0,.051-.467,1.976,1.976,0,0,0-.055-.447,2.006,2.006,0,0,0-.151-.416,2.064,2.064,0,0,0-.236-.372,2.116,2.116,0,0,0-1.666-.8H386.7a2.263,2.263,0,0,1-.723-.115,2.088,2.088,0,0,1-.6-.314,2.116,2.116,0,0,1-.451-.466,2.167,2.167,0,0,1-.288-.57,2.126,2.126,0,0,1-.108-.609,2.024,2.024,0,0,1,.078-.619,1.991,1.991,0,0,1,.28-.586,2.21,2.21,0,0,1,.5-.508,2.017,2.017,0,0,0,.023-3.238,2.211,2.211,0,0,1-.487-.511,1.991,1.991,0,0,1-.271-.585,2.018,2.018,0,0,1-.072-.616,2.124,2.124,0,0,1,.112-.6,2.172,2.172,0,0,1,.29-.566,2.125,2.125,0,0,1,.451-.462,2.09,2.09,0,0,1,.593-.311,2.252,2.252,0,0,1,.717-.114l.106,0h0l.1,0a2.118,2.118,0,0,0,1.656-.784,2.071,2.071,0,0,0,.238-.367,2.007,2.007,0,0,0,.154-.411,1.972,1.972,0,0,0,.06-.443,2.02,2.02,0,0,0-.044-.464,2.073,2.073,0,0,1,.011-.945,1.983,1.983,0,0,1,.155-.413,2.061,2.061,0,0,1,.236-.364,2.182,2.182,0,0,1,.352-.345,2.285,2.285,0,0,1,.89-.424,2.218,2.218,0,0,1,.5-.057,2.119,2.119,0,0,1,.747.135,2.228,2.228,0,0,1,.7.428,2.113,2.113,0,0,0,.676.407,2.134,2.134,0,0,0,.369.1,2.179,2.179,0,0,0,1.441-.244,2.064,2.064,0,0,0,.8-.8l0,0a2.211,2.211,0,0,1,.37-.495,2.077,2.077,0,0,1,.46-.347,2.134,2.134,0,0,1,.518-.2,2.253,2.253,0,0,1,.547-.067,2.322,2.322,0,0,1,.741.122,2.247,2.247,0,0,1,.345.15,2.163,2.163,0,0,1,.315.206,2.03,2.03,0,0,1,.5.577,2.116,2.116,0,0,1,.264.783,2.007,2.007,0,0,0,.244.725,2.035,2.035,0,0,0,.212.3,2.092,2.092,0,0,0,.261.26,2.15,2.15,0,0,0,2.156.349,2.271,2.271,0,0,1,.823-.158,2.124,2.124,0,0,1,.6.086,2.164,2.164,0,0,1,.533.239,2.222,2.222,0,0,1,.445.364,2.2,2.2,0,0,1,.335.463,2.1,2.1,0,0,1,.19.489,1.97,1.97,0,0,1-.033,1.074,2.189,2.189,0,0,1-.259.541,1.992,1.992,0,0,0-.216,1.769,2.067,2.067,0,0,0,1.333,1.281,2.263,2.263,0,0,1,.655.332,2.039,2.039,0,0,1,.745,1.06,2.139,2.139,0,0,1-.009,1.254,2.041,2.041,0,0,1-.76,1.051,2.265,2.265,0,0,1-.66.323,2.069,2.069,0,0,0-1.352,1.264,1.992,1.992,0,0,0,.191,1.772l0,.007a2.18,2.18,0,0,1,.245.533,1.97,1.97,0,0,1,.021,1.067,2.089,2.089,0,0,1-.193.484,2.2,2.2,0,0,1-.336.458,2.225,2.225,0,0,1-.445.36,2.169,2.169,0,0,1-.531.236,2.125,2.125,0,0,1-.594.085,2.261,2.261,0,0,1-.849-.169l0,0a2.151,2.151,0,0,0-2.167.331,2.048,2.048,0,0,0-.474.555,2.009,2.009,0,0,0-.25.716,2.12,2.12,0,0,1-.271.773,2.031,2.031,0,0,1-.5.568,2.164,2.164,0,0,1-.313.2,2.255,2.255,0,0,1-.342.147,2.32,2.32,0,0,1-.734.119Zm-1.865-1.182h0l.009.016a2.147,2.147,0,0,0,.359.492,2.014,2.014,0,0,0,.449.345,2.138,2.138,0,0,0,1.049.27,2.208,2.208,0,0,0,1.353-.456,1.988,1.988,0,0,0,.75-1.3,2.068,2.068,0,0,1,.258-.737,2.106,2.106,0,0,1,.488-.571,2.211,2.211,0,0,1,2.232-.338l0,0a2.2,2.2,0,0,0,.822.163,2.087,2.087,0,0,0,1.093-.311,2.156,2.156,0,0,0,.76-.8,2.029,2.029,0,0,0,.187-.47,1.911,1.911,0,0,0-.021-1.035,2.127,2.127,0,0,0-.243-.526l0-.007a2.107,2.107,0,0,1-.211-.44,2.037,2.037,0,0,1-.092-.929,2.081,2.081,0,0,1,.111-.448,2.113,2.113,0,0,1,.521-.794,2.141,2.141,0,0,1,.395-.3,2.22,2.22,0,0,1,.475-.208,2.205,2.205,0,0,0,.643-.314,1.982,1.982,0,0,0,.738-1.02,2.079,2.079,0,0,0,.008-1.219,1.979,1.979,0,0,0-.723-1.029,2.2,2.2,0,0,0-.638-.323,2.222,2.222,0,0,1-.471-.214,2.121,2.121,0,0,1-.693-.677,2.11,2.11,0,0,1-.208-.426,2.084,2.084,0,0,1-.1-.449,2.038,2.038,0,0,1,.1-.928,2.111,2.111,0,0,1,.222-.445,2.129,2.129,0,0,0,.252-.526,1.911,1.911,0,0,0,.032-1.041,2.032,2.032,0,0,0-.185-.475,2.154,2.154,0,0,0-.759-.8,2.084,2.084,0,0,0-1.1-.315,2.21,2.21,0,0,0-.8.154,2.211,2.211,0,0,1-2.216-.359,2.144,2.144,0,0,1-.269-.267,2.094,2.094,0,0,1-.218-.314,2.067,2.067,0,0,1-.251-.747,1.985,1.985,0,0,0-.743-1.321,2.209,2.209,0,0,0-1.365-.465,2.136,2.136,0,0,0-1.036.263,2.017,2.017,0,0,0-.446.337,2.149,2.149,0,0,0-.358.478l0,0a2.124,2.124,0,0,1-.821.827,2.241,2.241,0,0,1-1.481.251,2.2,2.2,0,0,1-.38-.1,2.173,2.173,0,0,1-.7-.419,2.092,2.092,0,0,0-1.409-.548,2.2,2.2,0,0,0-1.694.8,1.959,1.959,0,0,0-.389,1.672,2.082,2.082,0,0,1,.046.477,2.038,2.038,0,0,1-.062.457,2.063,2.063,0,0,1-.159.423,2.124,2.124,0,0,1-.244.378,2.174,2.174,0,0,1-1.2.749,2.234,2.234,0,0,1-.5.057l-.1,0h0l-.1,0a2.192,2.192,0,0,0-.7.111,2.029,2.029,0,0,0-.576.3,2.062,2.062,0,0,0-.438.449,2.113,2.113,0,0,0-.282.55,2.064,2.064,0,0,0-.109.587,1.96,1.96,0,0,0,.069.6,1.932,1.932,0,0,0,.263.568,2.15,2.15,0,0,0,.474.5,2.167,2.167,0,0,1,.364.353,2.072,2.072,0,0,1,.407,1.782,2.069,2.069,0,0,1-.425.85,2.164,2.164,0,0,1-.369.349,2.153,2.153,0,0,0-.483.495,1.932,1.932,0,0,0-.271.568,1.962,1.962,0,0,0-.075.6,2.063,2.063,0,0,0,.105.592,2.105,2.105,0,0,0,.28.554,2.058,2.058,0,0,0,.438.453,2.028,2.028,0,0,0,.579.305,2.2,2.2,0,0,0,.7.112h.139a2.237,2.237,0,0,1,.509.058,2.171,2.171,0,0,1,1.2.759,2.122,2.122,0,0,1,.243.382,2.069,2.069,0,0,1,.156.428,2.04,2.04,0,0,1,.057.461,2.083,2.083,0,0,1-.053.48,1.957,1.957,0,0,0,.374,1.688,2.124,2.124,0,0,0,.342.34,2.222,2.222,0,0,0,.871.419,2.151,2.151,0,0,0,.488.057,2.1,2.1,0,0,0,1.388-.529,2.181,2.181,0,0,1,1.06-.5,2.24,2.24,0,0,1,1.487.259,2.121,2.121,0,0,1,.814.829Z" transform="translate(-383.905 -377.352)" fill="#fff"/>
          <path id="Caminho_4" data-name="Caminho 4" d="M363.2,369.491a2.245,2.245,0,0,1,.533.064,2.123,2.123,0,0,1,.508.2,2.076,2.076,0,0,1,.454.333,2.215,2.215,0,0,1,.362.461h0l.009.015a2.062,2.062,0,0,0,.794.772,2.17,2.17,0,0,0,1.041.265,2.124,2.124,0,0,0,1.455-.571,2.216,2.216,0,0,1,.714-.452,2.117,2.117,0,0,1,.767-.143h0a2.223,2.223,0,0,1,.491.055,2.283,2.283,0,0,1,.88.413,2.173,2.173,0,0,1,.351.337,2.061,2.061,0,0,1,.237.356,1.978,1.978,0,0,1,.159.405,2.072,2.072,0,0,1,.03.931,2.016,2.016,0,0,0-.034.457,1.975,1.975,0,0,0,.068.436,2,2,0,0,0,.158.4,2.064,2.064,0,0,0,.239.358,2.116,2.116,0,0,0,1.636.764c.048,0,.1,0,.145,0h0c.053,0,.107-.005.159-.005a2.229,2.229,0,0,1,.705.112,2.089,2.089,0,0,1,.587.305,2.126,2.126,0,0,1,.449.454,2.166,2.166,0,0,1,.293.558,2.115,2.115,0,0,1,.118.6,2.011,2.011,0,0,1-.061.61,1.985,1.985,0,0,1-.258.583,2.2,2.2,0,0,1-.47.515l-.006,0a2.013,2.013,0,0,0,.1,3.226h0a2.208,2.208,0,0,1,.51.5,1.991,1.991,0,0,1,.292.585,2.02,2.02,0,0,1,.088.623,2.123,2.123,0,0,1-.1.615,2.157,2.157,0,0,1-.284.576,2.088,2.088,0,0,1-1.05.791,2.282,2.282,0,0,1-.732.117h-.033a2.182,2.182,0,0,0-.5.058,2.1,2.1,0,0,0-1.176.754,1.994,1.994,0,0,0-.365,1.725,2.173,2.173,0,0,1,.067.5,1.972,1.972,0,0,1-.193.89,2.066,2.066,0,0,1-.233.376,2.18,2.18,0,0,1-.351.357,2.277,2.277,0,0,1-.9.441,2.2,2.2,0,0,1-.507.06,2.116,2.116,0,0,1-.712-.122,2.236,2.236,0,0,1-.678-.389,2.119,2.119,0,0,0-.652-.369,2.14,2.14,0,0,0-.709-.12,2.166,2.166,0,0,0-1.1.3,2.054,2.054,0,0,0-.8.846l0,0a2.195,2.195,0,0,1-.366.523,2.069,2.069,0,0,1-.466.368,2.2,2.2,0,0,1-1.1.288,2.265,2.265,0,0,1-1.367-.453,2.031,2.031,0,0,1-.5-.551,2.114,2.114,0,0,1-.277-.729h0l0-.025a2.006,2.006,0,0,0-.261-.7,2.045,2.045,0,0,0-.474-.539,2.148,2.148,0,0,0-1.769-.427,2.182,2.182,0,0,0-.424.133l-.006,0a2.245,2.245,0,0,1-.885.186,2.122,2.122,0,0,1-.586-.082,2.175,2.175,0,0,1-.526-.231,2.226,2.226,0,0,1-.443-.353,2.195,2.195,0,0,1-.338-.45,2.086,2.086,0,0,1-.2-.475,1.967,1.967,0,0,1,0-1.053,2.18,2.18,0,0,1,.23-.531h0l0-.007a1.987,1.987,0,0,0,.149-1.771,2.068,2.068,0,0,0-1.376-1.231h0a2.262,2.262,0,0,1-.667-.308,2.04,2.04,0,0,1-.783-1.033,2.135,2.135,0,0,1-.037-1.251,2.031,2.031,0,0,1,.718-1.073,2.255,2.255,0,0,1,.645-.345,2.059,2.059,0,0,0,1.3-1.307,1.989,1.989,0,0,0-.257-1.762l-.005-.008a2.18,2.18,0,0,1-.268-.533,1.966,1.966,0,0,1-.051-1.083,2.088,2.088,0,0,1,.186-.5,2.194,2.194,0,0,1,.332-.469,2.218,2.218,0,0,1,.445-.37,2.157,2.157,0,0,1,.536-.243,2.124,2.124,0,0,1,.6-.087,2.277,2.277,0,0,1,.777.14l.006,0a2.145,2.145,0,0,0,2.12-.384,2.089,2.089,0,0,0,.261-.267,2.005,2.005,0,0,0,.441-1.051,2.106,2.106,0,0,1,.251-.8,2.025,2.025,0,0,1,.5-.592,2.171,2.171,0,0,1,.318-.212,2.249,2.249,0,0,1,.349-.154,2.314,2.314,0,0,1,.752-.126Zm1.823,1.113h0l-.009-.015a2.151,2.151,0,0,0-.361-.463,2.017,2.017,0,0,0-.44-.324,2.064,2.064,0,0,0-.493-.19,2.179,2.179,0,0,0-.519-.062,2.072,2.072,0,0,0-2.111,1.829,2.064,2.064,0,0,1-.454,1.082,2.141,2.141,0,0,1-.269.274,2.208,2.208,0,0,1-1.429.526,2.216,2.216,0,0,1-.756-.134l-.006,0a2.218,2.218,0,0,0-.75-.134,2.075,2.075,0,0,0-1.107.321,2.147,2.147,0,0,0-.756.816,2.035,2.035,0,0,0-.18.482,1.907,1.907,0,0,0,.05,1.05,2.123,2.123,0,0,0,.266.526l.005.008a2.108,2.108,0,0,1,.227.432,2.035,2.035,0,0,1,.126.925,2.079,2.079,0,0,1-.094.451,2.1,2.1,0,0,1-.49.809,2.127,2.127,0,0,1-.382.311,2.211,2.211,0,0,1-.465.224,2.194,2.194,0,0,0-.628.336,1.972,1.972,0,0,0-.7,1.041,2.075,2.075,0,0,0,.036,1.216,1.981,1.981,0,0,0,.76,1,2.206,2.206,0,0,0,.646.3h0a2.219,2.219,0,0,1,.479.2,2.14,2.14,0,0,1,.4.289,2.112,2.112,0,0,1,.539.781,2.077,2.077,0,0,1,.121.444,2.034,2.034,0,0,1-.07.929,2.1,2.1,0,0,1-.2.444h0l0,.007a1.943,1.943,0,0,0-.041,2.007,2.155,2.155,0,0,0,.76.781,2.088,2.088,0,0,0,1.081.3,2.187,2.187,0,0,0,.867-.183l.006,0a2.237,2.237,0,0,1,.43-.134,2.207,2.207,0,0,1,1.818.439,2.106,2.106,0,0,1,.488.555,2.065,2.065,0,0,1,.264.694h0l0,.025a1.989,1.989,0,0,0,.759,1.267,2.2,2.2,0,0,0,1.33.44,2.061,2.061,0,0,0,1.875-1.142l0,0a2.115,2.115,0,0,1,.822-.874,2.2,2.2,0,0,1,.542-.227,2.242,2.242,0,0,1,.583-.077,2.185,2.185,0,0,1,1.4.5,2.1,2.1,0,0,0,1.351.5,2.134,2.134,0,0,0,.493-.058,2.213,2.213,0,0,0,.876-.43,2.118,2.118,0,0,0,.342-.347,1.95,1.95,0,0,0,.348-1.711,2.078,2.078,0,0,1-.064-.485,2.033,2.033,0,0,1,.049-.467,2.062,2.062,0,0,1,.15-.435,2.117,2.117,0,0,1,.241-.39,2.167,2.167,0,0,1,1.21-.775,2.244,2.244,0,0,1,.516-.06h.033a2.224,2.224,0,0,0,.713-.114,2.029,2.029,0,0,0,1.02-.768,2.1,2.1,0,0,0,.276-.56,2.063,2.063,0,0,0,.1-.6,1.96,1.96,0,0,0-.085-.6,1.93,1.93,0,0,0-.284-.568,2.15,2.15,0,0,0-.5-.488h0a2.165,2.165,0,0,1-.375-.339,2.07,2.07,0,0,1-.472-1.764,2.059,2.059,0,0,1,.392-.861,2.156,2.156,0,0,1,.354-.361l.006,0a2.142,2.142,0,0,0,.451-.5,1.927,1.927,0,0,0,.25-.566,1.953,1.953,0,0,0,.059-.592,2.054,2.054,0,0,0-.115-.578,2.105,2.105,0,0,0-.285-.542,2.063,2.063,0,0,0-.437-.441,2.029,2.029,0,0,0-.57-.3,2.169,2.169,0,0,0-.686-.109c-.052,0-.1,0-.156.005h0c-.049,0-.1,0-.148,0a2.22,2.22,0,0,1-.5-.056,2.171,2.171,0,0,1-1.187-.73,2.125,2.125,0,0,1-.246-.369,2.064,2.064,0,0,1-.163-.415,2.031,2.031,0,0,1-.069-.449,2.074,2.074,0,0,1,.035-.471,2.011,2.011,0,0,0-.029-.9,1.917,1.917,0,0,0-.154-.393,1.993,1.993,0,0,0-.23-.345,2.2,2.2,0,0,0-1.676-.783h0a2.058,2.058,0,0,0-.746.139,2.156,2.156,0,0,0-.695.44,2.163,2.163,0,0,1-.708.442,2.191,2.191,0,0,1-.39.109,2.236,2.236,0,0,1-1.469-.236,2.121,2.121,0,0,1-.808-.78Z" transform="translate(-353.166 -369.491)" fill="#fff"/>
        </g>
      </g>
    </g>
    <text id="H" transform="translate(993 852)" fill="#454545" font-size="35" font-family="Helvetica"><tspan x="0" y="0">H</tspan></text>
    <text id="LLUS" transform="translate(1046 852)" fill="#454545" font-size="35" font-family="Helvetica"><tspan x="0" y="0">LLUS</tspan></text>
  </g>
</svg>
