<svg xmlns="http://www.w3.org/2000/svg" xmlns:xlink="http://www.w3.org/1999/xlink" width="142" height="142" viewBox="0 0 142 142">
  <defs>
    <radialGradient id="radial-gradient" cx="0.5" cy="0.5" r="0.5" gradientUnits="objectBoundingBox">
      <stop offset="0" stop-color="#ffffc4"/>
      <stop offset="0.489" stop-color="#ffd092"/>
      <stop offset="0.855" stop-color="#faa61a"/>
      <stop offset="1" stop-color="#e68011"/>
    </radialGradient>
    <radialGradient id="radial-gradient-2" cx="0.5" cy="0.5" r="0.514" gradientTransform="translate(0.015 0.015) scale(0.973 0.973)" gradientUnits="objectBoundingBox">
      <stop offset="0.782" stop-color="#fce8a1"/>
      <stop offset="1" stop-color="#ffd303"/>
    </radialGradient>
    <radialGradient id="radial-gradient-3" cx="0.5" cy="0.5" r="0.514" gradientTransform="translate(0.015 0.027) scale(0.973 0.95)" gradientUnits="objectBoundingBox">
      <stop offset="0.796" stop-color="#ffe66f"/>
      <stop offset="0.966" stop-color="#fff000"/>
    </radialGradient>
    <radialGradient id="radial-gradient-4" cx="0.5" cy="0.5" r="0.514" gradientTransform="translate(0.016 0.016) scale(0.973 0.973)" gradientUnits="objectBoundingBox">
      <stop offset="0.209" stop-color="#faf28e"/>
      <stop offset="0.785" stop-color="#fff000"/>
      <stop offset="0.992" stop-color="#ffd303"/>
    </radialGradient>
  </defs>
  <g id="Grupo_17511" data-name="Grupo 17511" transform="translate(-4545 -3306)">
    <g id="Camada_1" data-name="Camada 1" transform="translate(4545 3306)">
      <rect id="Retângulo_1" data-name="Retângulo 1" width="142" height="142" transform="translate(142 0) rotate(90)" fill="url(#radial-gradient)"/>
      <g id="Grupo_3" data-name="Grupo 3" transform="translate(22.971 23.808)">
        <ellipse id="Elipse_1" data-name="Elipse 1" cx="47.774" cy="46.473" rx="47.774" ry="46.473" transform="translate(0.557 0.557)" fill="url(#radial-gradient-2)"/>
        <path id="Elipse_1_-_Contorno" data-name="Elipse 1 - Contorno" d="M40.831-7.5c26.65,0,48.331,21.1,48.331,47.03S67.48,86.561,40.831,86.561-7.5,65.463-7.5,39.531,14.181-7.5,40.831-7.5Zm0,92.947c26.035,0,47.217-20.6,47.217-45.916S66.866-6.386,40.831-6.386-6.386,14.212-6.386,39.531,14.8,85.447,40.831,85.447Z" transform="translate(7.5 7.5)" fill="#fff"/>
        <ellipse id="Elipse_2" data-name="Elipse 2" cx="36.356" cy="35.366" rx="36.356" ry="35.366" transform="translate(11.975 11.365)" fill="url(#radial-gradient-3)"/>
        <path id="Elipse_2_-_Contorno" data-name="Elipse 2 - Contorno" d="M29.413-7.5c20.354,0,36.913,16.115,36.913,35.923S49.767,64.346,29.413,64.346-7.5,48.231-7.5,28.423,9.059-7.5,29.413-7.5Zm0,70.732c19.739,0,35.8-15.615,35.8-34.809S49.152-6.386,29.413-6.386s-35.8,15.615-35.8,34.809S9.673,63.232,29.413,63.232Z" transform="translate(18.918 18.308)" fill="#fff"/>
        <ellipse id="Elipse_3" data-name="Elipse 3" cx="23.61" cy="22.967" rx="23.61" ry="22.967" transform="translate(24.721 24.288)" fill="url(#radial-gradient-4)"/>
        <path id="Elipse_3_-_Contorno" data-name="Elipse 3 - Contorno" d="M7.409-17.5c13.735,0,24.909,10.886,24.909,24.267S21.144,31.033,7.409,31.033-17.5,20.147-17.5,6.767-6.326-17.5,7.409-17.5Zm0,45.934c12.3,0,22.31-9.72,22.31-21.667S19.711-14.9,7.409-14.9-14.9-5.181-14.9,6.767-4.892,28.434,7.409,28.434Z" transform="translate(40.922 40.488)" fill="#fff"/>
        <g id="Grupo_1" data-name="Grupo 1" transform="translate(14.637 14.357)">
          <path id="Caminho_1" data-name="Caminho 1" d="M566.742,584.787a6.349,6.349,0,0,1-1.559-.193,6.006,6.006,0,0,1-1.475-.588,5.839,5.839,0,0,1-1.3-1,6.212,6.212,0,0,1-1.038-1.422,5.9,5.9,0,0,0-5.23-3.082,5.98,5.98,0,0,0-2.044.357,5.9,5.9,0,0,0-1.859,1.094l0,0a6.286,6.286,0,0,1-1.951,1.163,5.969,5.969,0,0,1-2.066.367,6.219,6.219,0,0,1-1.413-.164,6.422,6.422,0,0,1-2.516-1.212,6.147,6.147,0,0,1-.99-.984,5.808,5.808,0,0,1-.662-1.037,5.583,5.583,0,0,1-.427-1.177,5.828,5.828,0,0,1,0-2.667h0l0-.012a5.579,5.579,0,0,0-1.093-4.742,5.9,5.9,0,0,0-4.644-2.217l-.183,0h0c-.068,0-.137,0-.205,0h0a6.369,6.369,0,0,1-2.033-.324,5.88,5.88,0,0,1-1.677-.884,5.959,5.959,0,0,1-1.268-1.311,6.093,6.093,0,0,1-.811-1.6,5.98,5.98,0,0,1-.3-1.713,5.69,5.69,0,0,1,.219-1.743,5.607,5.607,0,0,1,.787-1.65,6.221,6.221,0,0,1,1.388-1.424h0l.009-.007a5.623,5.623,0,0,0,.064-9.027,6.218,6.218,0,0,1-1.37-1.439,5.6,5.6,0,0,1-.764-1.648,5.683,5.683,0,0,1-.2-1.734,5.976,5.976,0,0,1,.315-1.7,6.1,6.1,0,0,1,.817-1.592,5.971,5.971,0,0,1,1.268-1.3,5.881,5.881,0,0,1,1.669-.876,6.335,6.335,0,0,1,2.016-.321c.1,0,.2,0,.3.006h0c.089,0,.178.006.267.006a5.9,5.9,0,0,0,4.617-2.185,5.755,5.755,0,0,0,.662-1.023,5.6,5.6,0,0,0,.429-1.146,5.507,5.507,0,0,0,.167-1.235,5.634,5.634,0,0,0-.124-1.292,5.835,5.835,0,0,1,.03-2.659,5.586,5.586,0,0,1,.435-1.164,5.807,5.807,0,0,1,.665-1.024,6.137,6.137,0,0,1,.99-.972,6.424,6.424,0,0,1,2.5-1.194,6.237,6.237,0,0,1,1.4-.161,5.969,5.969,0,0,1,2.1.38,6.272,6.272,0,0,1,1.974,1.2,5.979,5.979,0,0,0,9.151-1.494l.007-.012a6.224,6.224,0,0,1,1.041-1.392,5.846,5.846,0,0,1,1.294-.976,6,6,0,0,1,1.459-.575,6.337,6.337,0,0,1,1.538-.188,6.5,6.5,0,0,1,2.085.342,6.182,6.182,0,0,1,1.858,1,5.712,5.712,0,0,1,1.412,1.624,5.955,5.955,0,0,1,.743,2.2v.007a5.847,5.847,0,0,0,5.83,4.971,6.011,6.011,0,0,0,2.18-.411,6.387,6.387,0,0,1,2.314-.444,5.979,5.979,0,0,1,1.682.241,6.1,6.1,0,0,1,1.5.672,6.257,6.257,0,0,1,1.253,1.025,6.185,6.185,0,0,1,.942,1.3,5.891,5.891,0,0,1,.535,1.376,5.546,5.546,0,0,1-.092,3.023,6.15,6.15,0,0,1-.728,1.522,5.553,5.553,0,0,0-.6,4.932,5.763,5.763,0,0,0,3.718,3.572,6.366,6.366,0,0,1,1.843.933,5.74,5.74,0,0,1,2.1,2.983,6.02,6.02,0,0,1-.024,3.53,5.745,5.745,0,0,1-2.139,2.957,6.371,6.371,0,0,1-1.856.909,5.768,5.768,0,0,0-3.769,3.523,5.553,5.553,0,0,0,.533,4.938l.017.028a6.133,6.133,0,0,1,.685,1.493,5.544,5.544,0,0,1,.06,3,5.892,5.892,0,0,1-.542,1.362,6.19,6.19,0,0,1-.945,1.29,6.266,6.266,0,0,1-1.252,1.014,6.112,6.112,0,0,1-1.494.664,5.98,5.98,0,0,1-1.67.238h0a6.365,6.365,0,0,1-2.388-.476,6,6,0,0,0-6.056.917,5.707,5.707,0,0,0-1.321,1.548,5.6,5.6,0,0,0-.7,2l-.014.095h0a5.939,5.939,0,0,1-.747,2.079,5.719,5.719,0,0,1-1.412,1.6,6.18,6.18,0,0,1-1.845.983A6.5,6.5,0,0,1,566.742,584.787Zm-10.6-6.507a6.281,6.281,0,0,1,3.112.822,5.971,5.971,0,0,1,2.314,2.378,5.988,5.988,0,0,0,1,1.371,5.615,5.615,0,0,0,1.252.961,5.961,5.961,0,0,0,2.924.752,6.158,6.158,0,0,0,3.772-1.271,5.543,5.543,0,0,0,2.091-3.629l.014-.095h0a5.816,5.816,0,0,1,.711-1.979,5.931,5.931,0,0,1,1.373-1.608,6.221,6.221,0,0,1,6.281-.952,6.143,6.143,0,0,0,2.3.46h0a5.818,5.818,0,0,0,3.048-.869,6.015,6.015,0,0,0,2.119-2.221,5.665,5.665,0,0,0,.521-1.311,5.323,5.323,0,0,0-.058-2.883,5.932,5.932,0,0,0-.677-1.465l-.017-.028a5.93,5.93,0,0,1-.59-1.232,5.733,5.733,0,0,1-.259-2.615,5.862,5.862,0,0,1,.312-1.26,5.944,5.944,0,0,1,1.467-2.235,6.016,6.016,0,0,1,1.111-.839,6.256,6.256,0,0,1,1.335-.585,5.8,5.8,0,0,0,3.074-2.161,5.57,5.57,0,0,0,.775-1.558,5.8,5.8,0,0,0,.023-3.4,5.564,5.564,0,0,0-.753-1.567,5.794,5.794,0,0,0-3.041-2.2,6.245,6.245,0,0,1-1.326-.6,5.969,5.969,0,0,1-1.949-1.906,5.93,5.93,0,0,1-.584-1.2,5.86,5.86,0,0,1-.295-1.264,5.738,5.738,0,0,1,.3-2.613,5.937,5.937,0,0,1,.625-1.252,5.926,5.926,0,0,0,.7-1.467,5.352,5.352,0,0,0,.246-1.474,5.521,5.521,0,0,0-.673-2.751,6.007,6.007,0,0,0-2.117-2.243,5.81,5.81,0,0,0-3.064-.879,6.164,6.164,0,0,0-2.234.429,6.224,6.224,0,0,1-6.236-1.01,5.929,5.929,0,0,1-1.371-1.634,5.814,5.814,0,0,1-.706-2.1v-.008a5.534,5.534,0,0,0-2.071-3.675,6.159,6.159,0,0,0-3.805-1.3,5.954,5.954,0,0,0-2.888.734,5.62,5.62,0,0,0-1.244.939,6,6,0,0,0-1,1.329l-.007.013a5.976,5.976,0,0,1-2.31,2.326,6.283,6.283,0,0,1-3.076.8,6.2,6.2,0,0,1-2.159-.384,6.115,6.115,0,0,1-1.956-1.178,5.833,5.833,0,0,0-3.929-1.528,6.125,6.125,0,0,0-4.722,2.244,5.46,5.46,0,0,0-1.085,4.66,5.856,5.856,0,0,1,.129,1.343,5.727,5.727,0,0,1-.174,1.286,5.821,5.821,0,0,1-.446,1.192,5.972,5.972,0,0,1-.688,1.062,6.118,6.118,0,0,1-3.371,2.106,6.283,6.283,0,0,1-1.419.162c-.091,0-.183,0-.274-.006h0c-.1,0-.194-.006-.29-.006a5.852,5.852,0,0,0-3.551,1.152,5.745,5.745,0,0,0-1.22,1.251,5.877,5.877,0,0,0-.787,1.533,5.754,5.754,0,0,0-.3,1.637,5.461,5.461,0,0,0,.193,1.666,5.384,5.384,0,0,0,.734,1.583,6,6,0,0,0,1.321,1.387,6.091,6.091,0,0,1,1.024.995,5.829,5.829,0,0,1-.052,7.406,6.1,6.1,0,0,1-1.029.975h0l-.009.007a6,6,0,0,0-1.347,1.379,5.386,5.386,0,0,0-.756,1.584,5.468,5.468,0,0,0-.21,1.675,5.754,5.754,0,0,0,.293,1.649,5.869,5.869,0,0,0,.781,1.545,5.733,5.733,0,0,0,1.221,1.262,5.868,5.868,0,0,0,3.576,1.163h0l.2,0h0l.189,0a6.291,6.291,0,0,1,1.433.164,6.107,6.107,0,0,1,3.386,2.136,5.978,5.978,0,0,1,.684,1.076,5.812,5.812,0,0,1,.438,1.2,5.725,5.725,0,0,1,.161,1.3,5.855,5.855,0,0,1-.145,1.34h0l0,.012a5.454,5.454,0,0,0,1.043,4.7,6.114,6.114,0,0,0,4.745,2.277,5.846,5.846,0,0,0,3.869-1.473l0,0a6.123,6.123,0,0,1,1.932-1.137A6.2,6.2,0,0,1,556.139,578.28Z" transform="translate(-528.232 -519.44)" fill="#fff"/>
          <path id="Caminho_2" data-name="Caminho 2" d="M534.492,513.845a6.307,6.307,0,0,1,1.5.18,5.981,5.981,0,0,1,1.428.551,5.841,5.841,0,0,1,1.276.937,6.232,6.232,0,0,1,1.044,1.338A5.75,5.75,0,0,0,541.953,519a6.052,6.052,0,0,0,2.9.739,5.922,5.922,0,0,0,4.058-1.592,6.235,6.235,0,0,1,2.008-1.272,5.96,5.96,0,0,1,2.159-.4h0a6.249,6.249,0,0,1,1.381.156,6.417,6.417,0,0,1,2.477,1.161,6.12,6.12,0,0,1,.987.948,5.787,5.787,0,0,1,.668,1,5.579,5.579,0,0,1,.447,1.141,5.83,5.83,0,0,1,.085,2.608h0l0,.01a5.617,5.617,0,0,0-.094,1.275,5.5,5.5,0,0,0,.188,1.214,5.585,5.585,0,0,0,.441,1.122,5.744,5.744,0,0,0,.665,1,5.9,5.9,0,0,0,4.562,2.129c.134,0,.27,0,.4-.013.15-.01.3-.015.451-.015a6.268,6.268,0,0,1,1.984.314,5.873,5.873,0,0,1,1.651.86,5.978,5.978,0,0,1,1.264,1.278,6.1,6.1,0,0,1,.826,1.569,5.96,5.96,0,0,1,.333,1.675,5.664,5.664,0,0,1-.172,1.716,5.589,5.589,0,0,1-.725,1.642,6.2,6.2,0,0,1-1.322,1.45l-.019.015a5.611,5.611,0,0,0,.282,8.98l.013.01a6.213,6.213,0,0,1,1.439,1.412,5.6,5.6,0,0,1,.823,1.648,5.688,5.688,0,0,1,.248,1.753,5.974,5.974,0,0,1-.284,1.731,6.073,6.073,0,0,1-.8,1.62,5.925,5.925,0,0,1-1.267,1.328,5.864,5.864,0,0,1-1.689.9,6.42,6.42,0,0,1-2.06.329h-.093a5.882,5.882,0,0,0-4.68,2.264,5.559,5.559,0,0,0-1.024,4.784l.006.023a5.813,5.813,0,0,1,.058,2.707,5.57,5.57,0,0,1-.413,1.2,5.8,5.8,0,0,1-.655,1.057,6.144,6.144,0,0,1-.989,1,6.4,6.4,0,0,1-2.531,1.241,6.185,6.185,0,0,1-1.427.168,6.075,6.075,0,0,1-3.909-1.438,5.9,5.9,0,0,0-1.818-1.029,5.966,5.966,0,0,0-1.978-.335,5.861,5.861,0,0,0-5.274,3.181l-.006.013a6.176,6.176,0,0,1-1.029,1.471,5.814,5.814,0,0,1-1.313,1.035,6.184,6.184,0,0,1-3.089.811,6.369,6.369,0,0,1-3.845-1.274,5.711,5.711,0,0,1-1.409-1.551,5.963,5.963,0,0,1-.792-2.12,5.6,5.6,0,0,0-.726-1.947,5.7,5.7,0,0,0-1.321-1.5,5.988,5.988,0,0,0-6.114-.82,6.322,6.322,0,0,1-2.506.529,5.977,5.977,0,0,1-1.649-.232,6.121,6.121,0,0,1-1.481-.649,6.234,6.234,0,0,1-2.2-2.26,5.87,5.87,0,0,1-.552-1.338,5.531,5.531,0,0,1,.009-2.966,6.13,6.13,0,0,1,.66-1.515,5.54,5.54,0,0,0,.416-4.935,5.767,5.767,0,0,0-3.845-3.435,6.369,6.369,0,0,1-1.875-.866,5.745,5.745,0,0,1-2.2-2.906,6.008,6.008,0,0,1-.1-3.521,5.719,5.719,0,0,1,2.022-3.019,6.346,6.346,0,0,1,1.815-.971,5.741,5.741,0,0,0,3.624-3.643,5.544,5.544,0,0,0-.716-4.911,6.141,6.141,0,0,1-.768-1.521,5.537,5.537,0,0,1-.144-3.047,5.886,5.886,0,0,1,.522-1.4,6.224,6.224,0,0,1,2.186-2.361,6.065,6.065,0,0,1,1.508-.684,5.968,5.968,0,0,1,1.7-.246,6.408,6.408,0,0,1,2.185.393l.026.01a6.009,6.009,0,0,0,2.025.353,5.8,5.8,0,0,0,5.833-5.1,5.928,5.928,0,0,1,.707-2.248,5.7,5.7,0,0,1,1.409-1.665,6.184,6.184,0,0,1,1.876-1.031,6.512,6.512,0,0,1,2.115-.354Zm10.364,6.12a6.275,6.275,0,0,1-3.009-.766,5.972,5.972,0,0,1-2.3-2.236,6.009,6.009,0,0,0-1.006-1.291,5.623,5.623,0,0,0-1.228-.9,5.929,5.929,0,0,0-2.823-.7,5.777,5.777,0,0,0-5.886,5.1,5.8,5.8,0,0,1-.671,2.142,5.912,5.912,0,0,1-1.363,1.675,6.166,6.166,0,0,1-.88.625,6.2,6.2,0,0,1-5.268.478l-.028-.01a6.18,6.18,0,0,0-2.081-.37,5.786,5.786,0,0,0-3.086.9,5.985,5.985,0,0,0-2.107,2.276,5.514,5.514,0,0,0-.64,2.786,5.34,5.34,0,0,0,.276,1.483,5.918,5.918,0,0,0,.741,1.465,5.941,5.941,0,0,1,.654,1.236,5.728,5.728,0,0,1,.356,2.6,5.851,5.851,0,0,1-.265,1.269A5.919,5.919,0,0,1,512.863,540a5.989,5.989,0,0,1-1.075.875,6.226,6.226,0,0,1-1.308.631,5.774,5.774,0,0,0-2.981,2.26,5.543,5.543,0,0,0-.714,1.579,5.784,5.784,0,0,0,.1,3.39,5.565,5.565,0,0,0,.809,1.54,5.8,5.8,0,0,0,3.12,2.09,6.249,6.249,0,0,1,1.347.555,5.973,5.973,0,0,1,2.017,1.834,5.936,5.936,0,0,1,.628,1.178,5.868,5.868,0,0,1,.34,1.249,5.722,5.722,0,0,1-.2,2.614,5.916,5.916,0,0,1-.576,1.27,5.415,5.415,0,0,0-.114,5.593,6.01,6.01,0,0,0,2.119,2.179,5.822,5.822,0,0,0,3.014.849,6.1,6.1,0,0,0,2.418-.511,6.3,6.3,0,0,1,1.226-.385,6.209,6.209,0,0,1,5.115,1.236,5.925,5.925,0,0,1,1.373,1.561,5.819,5.819,0,0,1,.755,2.024,5.547,5.547,0,0,0,2.116,3.532,6.145,6.145,0,0,0,3.71,1.228,5.747,5.747,0,0,0,5.227-3.183l.006-.011a5.949,5.949,0,0,1,2.313-2.46,6.21,6.21,0,0,1,1.526-.638,6.314,6.314,0,0,1,1.64-.217,6.186,6.186,0,0,1,2.052.347,6.124,6.124,0,0,1,1.886,1.068,5.855,5.855,0,0,0,3.767,1.387,5.963,5.963,0,0,0,1.376-.162,6.167,6.167,0,0,0,1.292-.465,6.064,6.064,0,0,0,2.1-1.7,5.432,5.432,0,0,0,.976-4.745l-.006-.024a5.845,5.845,0,0,1-.179-1.364,5.707,5.707,0,0,1,.138-1.314,5.8,5.8,0,0,1,.423-1.225,5.96,5.96,0,0,1,.677-1.1,6.081,6.081,0,0,1,2.086-1.705,6.134,6.134,0,0,1,1.317-.477,6.309,6.309,0,0,1,1.453-.168h.093a5.885,5.885,0,0,0,3.613-1.181,5.7,5.7,0,0,0,1.22-1.278,5.848,5.848,0,0,0,.77-1.561,5.75,5.75,0,0,0,.274-1.666,5.463,5.463,0,0,0-.238-1.685,5.379,5.379,0,0,0-.791-1.583,5.988,5.988,0,0,0-1.374-1.351l-.014-.01a6.1,6.1,0,0,1-1.06-.957,5.814,5.814,0,0,1-.225-7.389,6.067,6.067,0,0,1,1-1.014l.017-.014a5.488,5.488,0,0,0,1.8-6.222,5.878,5.878,0,0,0-.8-1.511,5.755,5.755,0,0,0-1.217-1.23,5.818,5.818,0,0,0-3.5-1.13c-.144,0-.291,0-.436.014s-.28.014-.418.014a6.25,6.25,0,0,1-1.394-.157,6.109,6.109,0,0,1-3.339-2.053,5.961,5.961,0,0,1-.691-1.038,5.809,5.809,0,0,1-.459-1.167,5.727,5.727,0,0,1-.2-1.263,5.848,5.848,0,0,1,.1-1.315h0l0-.01a5.459,5.459,0,0,0-1.151-4.576,6.128,6.128,0,0,0-4.674-2.184,5.8,5.8,0,0,0-4.015,1.613,6.089,6.089,0,0,1-1.991,1.245,6.178,6.178,0,0,1-1.1.306A6.281,6.281,0,0,1,544.856,519.966Z" transform="translate(-506.355 -513.845)" fill="#fff"/>
        </g>
        <g id="Grupo_2" data-name="Grupo 2" transform="translate(3.259 3.635)">
          <path id="Caminho_3" data-name="Caminho 3" d="M433.278,463.575a8.4,8.4,0,0,1-2.06-.255,7.939,7.939,0,0,1-1.949-.777,7.71,7.71,0,0,1-1.72-1.32,8.193,8.193,0,0,1-1.34-1.821h0l-.032-.059a7.861,7.861,0,0,0-6.973-4.11,7.973,7.973,0,0,0-2.726.476A7.868,7.868,0,0,0,414,457.171a8.306,8.306,0,0,1-2.578,1.537,7.887,7.887,0,0,1-2.73.485,8.224,8.224,0,0,1-1.867-.216,8.483,8.483,0,0,1-3.324-1.6,8.115,8.115,0,0,1-1.309-1.3,7.672,7.672,0,0,1-.874-1.37,7.374,7.374,0,0,1-.565-1.554,7.7,7.7,0,0,1,0-3.54,7.51,7.51,0,0,0,.189-1.735,7.341,7.341,0,0,0-.206-1.663,7.461,7.461,0,0,0-.562-1.545,7.675,7.675,0,0,0-.879-1.381,7.867,7.867,0,0,0-6.192-2.956c-.082,0-.162,0-.245,0s-.182,0-.273,0h0a8.417,8.417,0,0,1-2.686-.428,7.764,7.764,0,0,1-2.216-1.168,7.869,7.869,0,0,1-1.676-1.732,8.053,8.053,0,0,1-1.071-2.118,7.9,7.9,0,0,1-.4-2.263,7.516,7.516,0,0,1,.289-2.3,7.407,7.407,0,0,1,1.039-2.179,8.221,8.221,0,0,1,1.846-1.89,7.5,7.5,0,0,0,.085-12.039,8.214,8.214,0,0,1-1.81-1.9,7.4,7.4,0,0,1-1.009-2.177,7.507,7.507,0,0,1-.266-2.291,7.9,7.9,0,0,1,.416-2.246,8.06,8.06,0,0,1,1.08-2.1,7.884,7.884,0,0,1,1.675-1.717,7.769,7.769,0,0,1,2.2-1.157,8.371,8.371,0,0,1,2.664-.424c.13,0,.262,0,.393.008h0c.118.005.238.008.356.008a7.873,7.873,0,0,0,6.156-2.914,7.673,7.673,0,0,0,.883-1.364,7.468,7.468,0,0,0,.573-1.528,7.348,7.348,0,0,0,.223-1.648,7.513,7.513,0,0,0-.165-1.723,7.708,7.708,0,0,1,.04-3.512,7.379,7.379,0,0,1,.575-1.537,7.67,7.67,0,0,1,.878-1.353,8.11,8.11,0,0,1,1.308-1.284,8.49,8.49,0,0,1,3.308-1.578,8.242,8.242,0,0,1,1.853-.213,7.884,7.884,0,0,1,2.778.5,8.287,8.287,0,0,1,2.609,1.592,7.857,7.857,0,0,0,2.514,1.514,7.959,7.959,0,0,0,1.373.371,8.105,8.105,0,0,0,5.358-.907,7.671,7.671,0,0,0,2.959-2.973l.007-.013a8.223,8.223,0,0,1,1.376-1.839,7.724,7.724,0,0,1,1.709-1.29,7.929,7.929,0,0,1,1.927-.759,8.376,8.376,0,0,1,2.032-.248,8.627,8.627,0,0,1,2.755.452,8.39,8.39,0,0,1,1.283.556,8.036,8.036,0,0,1,1.172.768,7.549,7.549,0,0,1,1.865,2.145,7.867,7.867,0,0,1,.981,2.912,7.46,7.46,0,0,0,.906,2.7,7.556,7.556,0,0,0,.788,1.132,7.756,7.756,0,0,0,.971.966,7.995,7.995,0,0,0,8.017,1.3,8.44,8.44,0,0,1,3.058-.587,7.9,7.9,0,0,1,2.222.318,8.056,8.056,0,0,1,1.982.887,8.269,8.269,0,0,1,1.656,1.354,8.179,8.179,0,0,1,1.244,1.72,7.787,7.787,0,0,1,.707,1.818,7.324,7.324,0,0,1-.121,3.992,8.124,8.124,0,0,1-.962,2.011,7.407,7.407,0,0,0-.8,6.579,7.684,7.684,0,0,0,4.958,4.763,8.415,8.415,0,0,1,2.435,1.233,7.582,7.582,0,0,1,2.77,3.94,7.953,7.953,0,0,1-.032,4.663,7.59,7.59,0,0,1-2.825,3.906,8.42,8.42,0,0,1-2.453,1.2,7.692,7.692,0,0,0-5.026,4.7,7.405,7.405,0,0,0,.711,6.586l.017.028a8.111,8.111,0,0,1,.911,1.982,7.324,7.324,0,0,1,.079,3.967,7.778,7.778,0,0,1-.716,1.8,8.177,8.177,0,0,1-1.249,1.7,8.284,8.284,0,0,1-1.655,1.34,8.075,8.075,0,0,1-1.974.877,7.9,7.9,0,0,1-2.207.314,8.413,8.413,0,0,1-3.156-.629l-.017-.007a8,8,0,0,0-8.057,1.23,7.611,7.611,0,0,0-1.762,2.064,7.47,7.47,0,0,0-.931,2.661,7.877,7.877,0,0,1-1.007,2.872,7.555,7.555,0,0,1-1.865,2.111,8.035,8.035,0,0,1-1.165.754,8.384,8.384,0,0,1-1.273.545,8.627,8.627,0,0,1-2.728.443Zm-6.935-4.4h0l.032.059a7.983,7.983,0,0,0,1.334,1.829,7.486,7.486,0,0,0,1.67,1.282,7.948,7.948,0,0,0,3.9,1,8.21,8.21,0,0,0,5.029-1.7,7.393,7.393,0,0,0,2.789-4.84,7.69,7.69,0,0,1,.958-2.74,7.833,7.833,0,0,1,1.814-2.124,8.22,8.22,0,0,1,8.3-1.258l.017.007a8.187,8.187,0,0,0,3.056.606,7.758,7.758,0,0,0,4.064-1.158,8.018,8.018,0,0,0,2.825-2.961,7.555,7.555,0,0,0,.7-1.748,7.1,7.1,0,0,0-.077-3.847,7.9,7.9,0,0,0-.9-1.954l-.017-.028a7.837,7.837,0,0,1-.785-1.637,7.576,7.576,0,0,1-.342-3.455,7.753,7.753,0,0,1,.413-1.664,7.854,7.854,0,0,1,1.937-2.952,7.95,7.95,0,0,1,1.467-1.109,8.257,8.257,0,0,1,1.764-.774,8.2,8.2,0,0,0,2.389-1.169,7.367,7.367,0,0,0,2.743-3.792,7.73,7.73,0,0,0,.031-4.532,7.359,7.359,0,0,0-2.689-3.825,8.191,8.191,0,0,0-2.371-1.2,8.255,8.255,0,0,1-1.753-.8,7.887,7.887,0,0,1-2.575-2.518,7.838,7.838,0,0,1-.772-1.586,7.745,7.745,0,0,1-.39-1.67,7.577,7.577,0,0,1,.39-3.451,7.845,7.845,0,0,1,.826-1.654,7.9,7.9,0,0,0,.936-1.956,7.1,7.1,0,0,0,.117-3.871,7.56,7.56,0,0,0-.687-1.766,8.009,8.009,0,0,0-2.822-2.991,7.748,7.748,0,0,0-4.086-1.172,8.219,8.219,0,0,0-2.978.572,8.221,8.221,0,0,1-8.24-1.335,7.979,7.979,0,0,1-1-.993,7.779,7.779,0,0,1-.811-1.166,7.681,7.681,0,0,1-.933-2.776,7.381,7.381,0,0,0-2.764-4.912,8.21,8.21,0,0,0-5.073-1.728,7.938,7.938,0,0,0-3.851.979,7.5,7.5,0,0,0-1.66,1.253,8,8,0,0,0-1.331,1.775l-.008.014a7.894,7.894,0,0,1-3.052,3.073,8.327,8.327,0,0,1-5.506.933,8.181,8.181,0,0,1-1.412-.382,8.079,8.079,0,0,1-2.585-1.556,7.778,7.778,0,0,0-5.239-2.037,8.166,8.166,0,0,0-6.3,2.992,7.282,7.282,0,0,0-1.448,6.215,7.735,7.735,0,0,1,.17,1.775,7.569,7.569,0,0,1-.23,1.7,7.686,7.686,0,0,1-.59,1.574,7.9,7.9,0,0,1-.908,1.4,8.083,8.083,0,0,1-4.454,2.783,8.3,8.3,0,0,1-1.875.213c-.12,0-.242,0-.363-.008h0c-.129-.005-.258-.008-.386-.008a8.148,8.148,0,0,0-2.593.412,7.546,7.546,0,0,0-2.141,1.124,7.665,7.665,0,0,0-1.628,1.668,7.837,7.837,0,0,0-1.05,2.045,7.673,7.673,0,0,0-.4,2.182,7.285,7.285,0,0,0,.258,2.223,7.181,7.181,0,0,0,.979,2.111,7.994,7.994,0,0,0,1.761,1.849,8.044,8.044,0,0,1,1.353,1.314,7.7,7.7,0,0,1-.069,9.783,8.057,8.057,0,0,1-1.372,1.3,8,8,0,0,0-1.8,1.839,7.185,7.185,0,0,0-1.008,2.113,7.294,7.294,0,0,0-.28,2.234,7.677,7.677,0,0,0,.39,2.2,7.828,7.828,0,0,0,1.042,2.06,7.646,7.646,0,0,0,1.628,1.683,7.544,7.544,0,0,0,2.152,1.135,8.2,8.2,0,0,0,2.615.416h0c.088,0,.178,0,.266,0s.167,0,.251,0a8.318,8.318,0,0,1,1.893.217,8.069,8.069,0,0,1,4.473,2.823,7.894,7.894,0,0,1,.9,1.422,7.687,7.687,0,0,1,.579,1.592,7.563,7.563,0,0,1,.212,1.713,7.735,7.735,0,0,1-.2,1.786,7.275,7.275,0,0,0,1.392,6.276,7.889,7.889,0,0,0,1.273,1.265,8.259,8.259,0,0,0,3.237,1.56,8,8,0,0,0,1.816.211A7.8,7.8,0,0,0,413.851,457a8.09,8.09,0,0,1,2.553-1.5,8.173,8.173,0,0,1,1.387-.368,8.324,8.324,0,0,1,5.527.965,7.887,7.887,0,0,1,3.025,3.083Z" transform="translate(-382.202 -376.917)" fill="#fff"/>
          <path id="Caminho_4" data-name="Caminho 4" d="M390.474,369.491a8.332,8.332,0,0,1,1.983.238,7.9,7.9,0,0,1,1.887.727,7.72,7.72,0,0,1,1.686,1.238,8.218,8.218,0,0,1,1.347,1.713h0l.032.055a7.668,7.668,0,0,0,2.95,2.871,8.069,8.069,0,0,0,3.87.985,7.9,7.9,0,0,0,5.411-2.123,8.238,8.238,0,0,1,2.654-1.681,7.876,7.876,0,0,1,2.852-.53h0a8.259,8.259,0,0,1,1.825.206,8.482,8.482,0,0,1,3.273,1.534,8.083,8.083,0,0,1,1.3,1.253,7.642,7.642,0,0,1,.882,1.322,7.367,7.367,0,0,1,.591,1.506,7.7,7.7,0,0,1,.11,3.46,7.5,7.5,0,0,0-.125,1.7,7.334,7.334,0,0,0,.251,1.619,7.456,7.456,0,0,0,.588,1.5,7.661,7.661,0,0,0,.887,1.332,7.868,7.868,0,0,0,6.083,2.839c.178,0,.359-.006.538-.018h0c.2-.013.4-.019.592-.019a8.283,8.283,0,0,1,2.622.415,7.758,7.758,0,0,1,2.182,1.136,7.9,7.9,0,0,1,1.67,1.688,8.059,8.059,0,0,1,1.091,2.072,7.874,7.874,0,0,1,.44,2.213,7.483,7.483,0,0,1-.228,2.267,7.385,7.385,0,0,1-.958,2.169,8.2,8.2,0,0,1-1.747,1.915l-.021.017a7.484,7.484,0,0,0,.39,11.993l0,0a8.21,8.21,0,0,1,1.9,1.862,7.4,7.4,0,0,1,1.087,2.176,7.512,7.512,0,0,1,.327,2.316,7.89,7.89,0,0,1-.376,2.287,8.02,8.02,0,0,1-1.056,2.141,7.763,7.763,0,0,1-3.9,2.94,8.486,8.486,0,0,1-2.722.435h-.124a8.113,8.113,0,0,0-1.868.216,7.838,7.838,0,0,0-3.165,1.565,7.791,7.791,0,0,0-1.208,1.238,7.414,7.414,0,0,0-1.358,6.412,8.094,8.094,0,0,1,.251,1.847,7.339,7.339,0,0,1-.719,3.309,7.659,7.659,0,0,1-.865,1.4,8.107,8.107,0,0,1-1.306,1.327,8.454,8.454,0,0,1-3.344,1.64,8.173,8.173,0,0,1-1.886.222,7.87,7.87,0,0,1-2.645-.455,8.32,8.32,0,0,1-2.52-1.445,7.871,7.871,0,0,0-2.424-1.372,7.953,7.953,0,0,0-2.637-.447,8.053,8.053,0,0,0-4.071,1.1,7.637,7.637,0,0,0-2.963,3.145l-.007.013a8.165,8.165,0,0,1-1.359,1.943,7.68,7.68,0,0,1-1.734,1.367,8.171,8.171,0,0,1-4.082,1.072,8.417,8.417,0,0,1-5.081-1.683,7.544,7.544,0,0,1-1.861-2.049,7.861,7.861,0,0,1-1.03-2.709h0l-.016-.092a7.464,7.464,0,0,0-.969-2.6,7.6,7.6,0,0,0-1.762-2,7.983,7.983,0,0,0-6.575-1.589,8.1,8.1,0,0,0-1.577.495l-.021.009a8.35,8.35,0,0,1-3.29.691,7.889,7.889,0,0,1-2.178-.307,8.087,8.087,0,0,1-1.956-.857,8.285,8.285,0,0,1-1.648-1.312,8.163,8.163,0,0,1-1.255-1.674,7.756,7.756,0,0,1-.729-1.767,7.307,7.307,0,0,1,.011-3.917,8.093,8.093,0,0,1,.857-1.974h0l.016-.027a7.388,7.388,0,0,0,.555-6.583,7.689,7.689,0,0,0-5.117-4.578l-.009,0a8.415,8.415,0,0,1-2.478-1.145,7.588,7.588,0,0,1-2.911-3.839,7.938,7.938,0,0,1-.138-4.652,7.554,7.554,0,0,1,2.671-3.988,8.386,8.386,0,0,1,2.4-1.283,7.656,7.656,0,0,0,4.833-4.858,7.4,7.4,0,0,0-.955-6.55l-.02-.029a8.1,8.1,0,0,1-1-1.981,7.313,7.313,0,0,1-.191-4.025,7.778,7.778,0,0,1,.69-1.844,8.225,8.225,0,0,1,2.888-3.119,8.012,8.012,0,0,1,1.992-.9,7.882,7.882,0,0,1,2.242-.325,8.468,8.468,0,0,1,2.887.52l.023.008a7.976,7.976,0,0,0,7.88-1.427,7.729,7.729,0,0,0,.971-.991,7.528,7.528,0,0,0,.779-1.159,7.434,7.434,0,0,0,.861-2.748,7.831,7.831,0,0,1,.935-2.97,7.529,7.529,0,0,1,1.861-2.2,8.037,8.037,0,0,1,1.181-.79,8.393,8.393,0,0,1,1.3-.573,8.606,8.606,0,0,1,2.795-.468Zm6.776,4.14h0l-.032-.055a8.011,8.011,0,0,0-1.342-1.721,7.5,7.5,0,0,0-1.637-1.2,7.68,7.68,0,0,0-1.834-.707,8.111,8.111,0,0,0-1.93-.231,7.7,7.7,0,0,0-7.848,6.8,7.658,7.658,0,0,1-.886,2.83,7.758,7.758,0,0,1-.8,1.193,7.96,7.96,0,0,1-1,1.019,8.145,8.145,0,0,1-1.162.826,8.2,8.2,0,0,1-6.961.632l-.023-.008a8.241,8.241,0,0,0-2.788-.5,7.715,7.715,0,0,0-4.115,1.195,7.98,7.98,0,0,0-2.81,3.035,7.553,7.553,0,0,0-.67,1.791,7.09,7.09,0,0,0,.185,3.9,7.89,7.89,0,0,0,.987,1.954l.02.029a7.84,7.84,0,0,1,.844,1.6,7.566,7.566,0,0,1,.47,3.437,7.728,7.728,0,0,1-.351,1.676,7.82,7.82,0,0,1-1.822,3.009,7.914,7.914,0,0,1-1.421,1.157,8.227,8.227,0,0,1-1.729.833,8.162,8.162,0,0,0-2.335,1.248,7.332,7.332,0,0,0-2.592,3.871,7.715,7.715,0,0,0,.134,4.521,7.365,7.365,0,0,0,2.826,3.727,8.188,8.188,0,0,0,2.4,1.111l.011,0a8.256,8.256,0,0,1,1.78.733,7.893,7.893,0,0,1,2.665,2.424,7.845,7.845,0,0,1,.829,1.556,7.746,7.746,0,0,1,.45,1.65,7.558,7.558,0,0,1-.261,3.452,7.81,7.81,0,0,1-.745,1.65h0l-.016.027a7.223,7.223,0,0,0-.151,7.46,8.013,8.013,0,0,0,2.825,2.9,7.762,7.762,0,0,0,4.019,1.132,8.133,8.133,0,0,0,3.224-.682l.021-.009a8.319,8.319,0,0,1,1.6-.5,8.205,8.205,0,0,1,6.759,1.633,7.826,7.826,0,0,1,1.814,2.063,7.681,7.681,0,0,1,.981,2.582h0l.016.092a7.4,7.4,0,0,0,2.822,4.711,8.193,8.193,0,0,0,4.946,1.637,7.664,7.664,0,0,0,6.97-4.246l.007-.014a7.86,7.86,0,0,1,3.056-3.251,8.206,8.206,0,0,1,2.016-.843,8.338,8.338,0,0,1,2.168-.287,8.176,8.176,0,0,1,2.711.459,8.093,8.093,0,0,1,2.492,1.411,7.807,7.807,0,0,0,5.023,1.849,7.953,7.953,0,0,0,1.835-.216,8.233,8.233,0,0,0,3.256-1.6,7.884,7.884,0,0,0,1.271-1.29,7.247,7.247,0,0,0,1.294-6.36,7.718,7.718,0,0,1-.237-1.8,7.547,7.547,0,0,1,.182-1.735,7.668,7.668,0,0,1,.559-1.618,7.871,7.871,0,0,1,.895-1.449,8.032,8.032,0,0,1,2.757-2.253,8.1,8.1,0,0,1,1.74-.63,8.336,8.336,0,0,1,1.92-.222h.124a8.263,8.263,0,0,0,2.651-.423,7.526,7.526,0,0,0,2.167-1.152,7.6,7.6,0,0,0,1.626-1.7,7.8,7.8,0,0,0,1.026-2.082,7.669,7.669,0,0,0,.365-2.222,7.29,7.29,0,0,0-.317-2.247,7.177,7.177,0,0,0-1.055-2.111,7.988,7.988,0,0,0-1.85-1.815l0,0a8.056,8.056,0,0,1-1.4-1.261,7.68,7.68,0,0,1-.3-9.76,8.016,8.016,0,0,1,1.318-1.34l.022-.017a7.964,7.964,0,0,0,1.678-1.846,7.16,7.16,0,0,0,.929-2.1,7.259,7.259,0,0,0,.221-2.2,7.651,7.651,0,0,0-.427-2.151,7.836,7.836,0,0,0-1.061-2.015,7.677,7.677,0,0,0-1.623-1.64,7.537,7.537,0,0,0-2.119-1.1,8.06,8.06,0,0,0-2.551-.4c-.192,0-.387.006-.581.019h0c-.183.012-.367.018-.549.018a8.257,8.257,0,0,1-1.842-.207,8.071,8.071,0,0,1-4.412-2.713,7.887,7.887,0,0,1-.913-1.371,7.675,7.675,0,0,1-.606-1.541,7.555,7.555,0,0,1-.259-1.668,7.718,7.718,0,0,1,.129-1.751,7.483,7.483,0,0,0-.106-3.36,7.146,7.146,0,0,0-.573-1.461,7.42,7.42,0,0,0-.857-1.283,8.17,8.17,0,0,0-6.231-2.912h0a7.653,7.653,0,0,0-2.772.515,8.016,8.016,0,0,0-2.582,1.636A8.045,8.045,0,0,1,407.161,377a8.164,8.164,0,0,1-1.449.4,8.315,8.315,0,0,1-5.46-.879,7.89,7.89,0,0,1-3-2.9Z" transform="translate(-353.166 -369.491)" fill="#fff"/>
        </g>
      </g>
    </g>
  </g>
</svg>
